<svg width="21" height="20" viewBox="0 0 21 20" fill="none" xmlns="http://www.w3.org/2000/svg">
<path d="M3.12048 15.9553C2.95459 15.9553 2.82031 16.0896 2.82031 16.2554C2.82031 16.4213 2.95459 16.5556 3.12048 16.5556H18.5638C18.7297 16.5556 18.864 16.4213 18.864 16.2554C18.864 16.0896 18.7297 15.9553 18.5638 15.9553H16.8886V7.09521H18.5638C18.7297 7.09521 18.864 6.96093 18.864 6.79504C18.864 6.62915 18.7297 6.49487 18.5638 6.49487H4.84031C4.81345 6.48702 4.78577 6.48145 4.75644 6.48145C4.7271 6.48145 4.69921 6.48702 4.67256 6.49487H3.12048C2.95459 6.49487 2.82031 6.62915 2.82031 6.79504C2.82031 6.96093 2.95459 7.09521 3.12048 7.09521H4.45751V15.9553H3.12048ZM9.1218 15.9553V7.09521H12.4387V15.9553H9.1218ZM16.2883 15.9553H13.0391V7.09521H16.2883V15.9553ZM5.05537 7.09521H8.52146V15.9553H5.05537V7.09521Z" fill="#121212" stroke="#121212" stroke-width="0.4" stroke-linejoin="round"/>
<path d="M20.384 18.3989H1.30017C1.13428 18.3989 1 18.5332 1 18.6991C1 18.865 1.13428 18.9993 1.30017 18.9993H20.384C20.5498 18.9993 20.6841 18.865 20.6841 18.6991C20.6841 18.5332 20.5498 18.3989 20.384 18.3989Z" fill="#121212" stroke="#121212" stroke-width="0.4" stroke-linejoin="round"/>
<path d="M20.6428 6.4917L11.1008 1.03948C11.0088 0.987011 10.8956 0.986805 10.8037 1.03907L1.1991 6.49129C1.0549 6.57309 1.0045 6.75634 1.08631 6.90053C1.14167 6.99804 1.2431 7.05258 1.34764 7.05258C1.39784 7.05258 1.44866 7.03998 1.49555 7.01354L10.9514 1.64561L20.3451 7.01292C20.4884 7.09472 20.6719 7.04535 20.7545 6.90115C20.8367 6.75737 20.7868 6.57413 20.6428 6.4917Z" fill="#121212" stroke="#121212" stroke-width="0.4" stroke-linejoin="round"/>
</svg>
