<svg width="19" height="18" viewBox="0 0 19 18" fill="none" xmlns="http://www.w3.org/2000/svg">
<path d="M2.88476 14.2933C2.73729 14.2933 2.61792 14.4127 2.61792 14.5602C2.61792 14.7076 2.73729 14.827 2.88476 14.827H16.6131C16.7606 14.827 16.8799 14.7076 16.8799 14.5602C16.8799 14.4127 16.7606 14.2933 16.6131 14.2933H15.1239V6.41719H16.6131C16.7606 6.41719 16.8799 6.29782 16.8799 6.15035C16.8799 6.00289 16.7606 5.88352 16.6131 5.88352H4.41359C4.38972 5.87654 4.36511 5.87158 4.33904 5.87158C4.31296 5.87158 4.28817 5.87654 4.26448 5.88352H2.88476C2.73729 5.88352 2.61792 6.00289 2.61792 6.15035C2.61792 6.29782 2.73729 6.41719 2.88476 6.41719H4.0733V14.2933H2.88476ZM8.21962 14.2933V6.41719H11.1682V14.2933H8.21962ZM14.5902 14.2933H11.7019V6.41719H14.5902V14.2933ZM4.60477 6.41719H7.68595V14.2933H4.60477V6.41719Z" fill="#6A4EEE" stroke="#6A4EEE" stroke-width="0.4" stroke-linejoin="round"/>
<path d="M18.2314 16.4653H1.26684C1.11937 16.4653 1 16.5847 1 16.7322C1 16.8796 1.11937 16.999 1.26684 16.999H18.2314C18.3788 16.999 18.4982 16.8796 18.4982 16.7322C18.4982 16.5847 18.3788 16.4653 18.2314 16.4653Z" fill="#6A4EEE" stroke="#6A4EEE" stroke-width="0.4" stroke-linejoin="round"/>
<path d="M18.4615 5.88184L9.97917 1.0351C9.89745 0.988454 9.79681 0.98827 9.71509 1.03473L1.1771 5.88148C1.04891 5.9542 1.0041 6.11709 1.07683 6.24527C1.12604 6.33196 1.21621 6.38044 1.30914 6.38044C1.35376 6.38044 1.39894 6.36924 1.44063 6.34573L9.8464 1.57391L18.1969 6.34518C18.3243 6.4179 18.4874 6.37401 18.5609 6.24583C18.634 6.11801 18.5895 5.95512 18.4615 5.88184Z" fill="#6A4EEE" stroke="#6A4EEE" stroke-width="0.4" stroke-linejoin="round"/>
</svg>
