<svg width="22" height="22" viewBox="0 0 22 22" fill="none" xmlns="http://www.w3.org/2000/svg">
<path d="M1.55213 21C1.42055 21 1.25607 20.9342 1.15739 20.8355C1.02581 20.7039 0.96002 20.4737 1.02581 20.2763L2.63765 15.4737C2.70344 15.2763 2.80213 15.0789 2.9666 14.9474L16.5192 1.39474C17.0455 0.868421 17.9008 0.868421 18.4271 1.39474L20.5982 3.56579C21.1245 4.09211 21.1245 4.94737 20.5982 5.47368L7.07844 19.0592C6.94686 19.1908 6.74949 19.3224 6.55212 19.3882L1.74949 21C1.6837 21 1.61791 21 1.55213 21ZM17.5061 1.6579C17.3416 1.6579 17.1442 1.72368 17.0126 1.85526L3.46002 15.4408C3.39423 15.5066 3.32844 15.6053 3.29555 15.7039L1.74949 20.2763L6.32186 18.7303C6.42055 18.6974 6.51923 18.6316 6.58502 18.5658L20.1376 5.01316C20.4008 4.75 20.4008 4.28947 20.1376 4.02632L17.9666 1.85526C17.8679 1.72368 17.6705 1.6579 17.5061 1.6579Z" fill="#6A4EEE" stroke="#6A4EEE" stroke-width="0.3"/>
</svg>
