<svg width="22" height="22" viewBox="0 0 22 22" fill="none" xmlns="http://www.w3.org/2000/svg">
<path d="M1.55213 21C1.42055 21 1.25607 20.9342 1.15739 20.8355C1.02581 20.7039 0.96002 20.4737 1.02581 20.2763L2.63765 15.4737C2.70344 15.2763 2.80213 15.0789 2.9666 14.9474L16.5192 1.39474C17.0455 0.868421 17.9008 0.868421 18.4271 1.39474L20.5982 3.56579C21.1245 4.09211 21.1245 4.94737 20.5982 5.47368L7.07844 19.0592C6.94686 19.1908 6.74949 19.3224 6.55213 19.3882L1.74949 21C1.6837 21 1.61791 21 1.55213 21ZM17.5061 1.6579C17.3416 1.6579 17.1442 1.72368 17.0126 1.85526L3.46002 15.4408C3.39423 15.5066 3.32844 15.6053 3.29555 15.7039L1.74949 20.2763L6.32186 18.7303C6.42055 18.6974 6.51923 18.6316 6.58502 18.5658L20.1376 5.01316C20.4008 4.75 20.4008 4.28947 20.1376 4.02632L17.9666 1.85526C17.8679 1.72368 17.6705 1.6579 17.5061 1.6579Z" fill="#6A4EEE" stroke="#6A4EEE" stroke-width="0.3"/>
<path d="M17.3419 8.63178C17.2432 8.63178 17.1774 8.59889 17.1116 8.5331L13.4932 4.91468C13.3616 4.7831 13.3616 4.58573 13.4932 4.45415C13.6248 4.32257 13.8222 4.32257 13.9537 4.45415L17.5722 8.07257C17.7037 8.20415 17.7037 8.40152 17.5722 8.5331C17.5064 8.59889 17.4077 8.63178 17.3419 8.63178Z" fill="#6A4EEE" stroke="#6A4EEE" stroke-width="0.3"/>
<path d="M18.6576 7.31538C18.5589 7.31538 18.4931 7.28248 18.4273 7.21669L14.8089 3.59827C14.6773 3.46669 14.6773 3.26933 14.8089 3.13775C14.9405 3.00617 15.1378 3.00617 15.2694 3.13775L18.8878 6.75617C19.0194 6.88775 19.0194 7.08511 18.8878 7.21669C18.822 7.28248 18.7234 7.31538 18.6576 7.31538Z" fill="#6A4EEE" stroke="#6A4EEE" stroke-width="0.3"/>
<path d="M6.81553 19.1591C6.71685 19.1591 6.65106 19.1262 6.58527 19.0604L2.96685 15.442C2.83527 15.3104 2.83527 15.1131 2.96685 14.9815C3.09843 14.8499 3.2958 14.8499 3.42737 14.9815L7.0458 18.5999C7.17737 18.7315 7.17737 18.9289 7.0458 19.0604C6.98001 19.1262 6.88132 19.1591 6.81553 19.1591Z" fill="#6A4EEE" stroke="#6A4EEE" stroke-width="0.3"/>
</svg>
