<svg width="15" height="15" viewBox="0 0 15 15" fill="none" xmlns="http://www.w3.org/2000/svg">
<path d="M7.50205 2.7733e-07C5.76688 -0.000471394 4.08523 0.600719 2.74363 1.70114C1.40203 2.80155 0.483487 4.33311 0.144515 6.03485C-0.194456 7.73658 0.0671146 9.50321 0.884659 11.0337C1.7022 12.5642 3.02514 13.7639 4.62805 14.4283C6.23096 15.0928 8.01467 15.1809 9.67525 14.6776C11.3358 14.1744 12.7706 13.1109 13.7349 11.6684C14.6993 10.2259 15.1337 8.49367 14.9641 6.76681C14.7945 5.03996 14.0313 3.42534 12.8047 2.19807C12.1085 1.5014 11.2819 0.948707 10.372 0.571558C9.46218 0.194408 8.48696 0.000191543 7.50205 2.7733e-07Z" fill="#00B123"/>
<path d="M10.5161 5.8855L6.6175 9.60985L4.49182 7.48696C4.46386 7.459 4.43066 7.43682 4.39413 7.42169C4.3576 7.40656 4.31844 7.39877 4.2789 7.39877C4.23935 7.39877 4.2002 7.40656 4.16367 7.42169C4.12713 7.43682 4.09394 7.459 4.06598 7.48696C4.03802 7.51492 4.01583 7.54812 4.0007 7.58465C3.98557 7.62119 3.97778 7.66034 3.97778 7.69989C3.97778 7.73943 3.98557 7.77859 4.0007 7.81512C4.01583 7.85165 4.03802 7.88484 4.06598 7.9128L6.40037 10.2472C6.42846 10.2753 6.4619 10.2975 6.49871 10.3125C6.53552 10.3274 6.57496 10.3349 6.6147 10.3343C6.65368 10.335 6.69242 10.328 6.72862 10.3135C6.76483 10.299 6.79777 10.2774 6.82551 10.25L10.9349 6.32188C10.993 6.26662 11.0267 6.19056 11.0287 6.11043C11.0307 6.03031 11.0007 5.95268 10.9455 5.89463C10.8902 5.83658 10.8142 5.80285 10.734 5.80087C10.6539 5.7989 10.5763 5.82883 10.5182 5.88409L10.5161 5.8855Z" fill="white" stroke="white" stroke-width="0.5"/>
</svg>
