<svg width="20" height="20" viewBox="0 0 20 20" fill="none" xmlns="http://www.w3.org/2000/svg">
<path d="M11.7042 19H2.5464C2.13716 18.9995 1.74475 18.8371 1.45496 18.5481C1.16518 18.2591 1.0016 17.8672 1 17.4579V2.54553C1.00069 2.13569 1.16386 1.74285 1.45374 1.45313C1.74363 1.16341 2.13656 1.00046 2.5464 1H11.7042C12.1142 1.00046 12.5073 1.16353 12.7972 1.45344C13.0871 1.74334 13.2502 2.13641 13.2507 2.5464V6.84822C13.2507 6.92873 13.2187 7.00594 13.1617 7.06287C13.1048 7.1198 13.0276 7.15178 12.9471 7.15178C12.8666 7.15178 12.7894 7.1198 12.7324 7.06287C12.6755 7.00594 12.6435 6.92873 12.6435 6.84822V2.54553C12.6433 2.29649 12.5443 2.05771 12.3682 1.88161C12.1921 1.70551 11.9533 1.60647 11.7042 1.60624H2.5464C2.29736 1.60647 2.05858 1.70551 1.88248 1.88161C1.70638 2.05771 1.60734 2.29649 1.60711 2.54553V17.4579C1.60849 17.7062 1.70803 17.9439 1.884 18.1191C2.05998 18.2942 2.29811 18.3927 2.5464 18.3929H11.7042C11.9533 18.3927 12.1921 18.2936 12.3682 18.1175C12.5443 17.9414 12.6433 17.7026 12.6435 17.4536V13.15C12.6435 13.0695 12.6755 12.9923 12.7324 12.9354C12.7894 12.8785 12.8666 12.8465 12.9471 12.8465C13.0276 12.8465 13.1048 12.8785 13.1617 12.9354C13.2187 12.9923 13.2507 13.0695 13.2507 13.15V17.4579C13.2493 17.8672 13.0858 18.2593 12.7959 18.5484C12.5061 18.8374 12.1136 18.9998 11.7042 19ZM17.1604 9.9974C17.1604 9.91689 17.1285 9.83968 17.0715 9.78275C17.0146 9.72582 16.9374 9.69384 16.8569 9.69384H8.44406C8.36355 9.69384 8.28634 9.72582 8.22941 9.78275C8.17248 9.83968 8.1405 9.91689 8.1405 9.9974C8.1405 10.0779 8.17248 10.1551 8.22941 10.212C8.28634 10.269 8.36355 10.301 8.44406 10.301H16.8569C16.9374 10.301 17.0146 10.269 17.0715 10.212C17.1285 10.1551 17.1604 10.0779 17.1604 9.9974ZM17.0737 12.7806L18.7641 11.0902C19.0535 10.8 19.2161 10.4068 19.2161 9.99696C19.2161 9.58709 19.0535 9.19394 18.7641 8.90373L17.0711 7.21769C17.0429 7.1895 17.0095 7.16714 16.9726 7.15189C16.9358 7.13663 16.8963 7.12878 16.8565 7.12878C16.8166 7.12878 16.7771 7.13663 16.7403 7.15189C16.7035 7.16714 16.67 7.1895 16.6418 7.21769C16.6136 7.24588 16.5913 7.27935 16.576 7.31618C16.5607 7.35301 16.5529 7.39248 16.5529 7.43235C16.5529 7.47222 16.5607 7.51169 16.576 7.54852C16.5913 7.58535 16.6136 7.61882 16.6418 7.64701L18.3322 9.33738C18.508 9.51362 18.6067 9.75238 18.6067 10.0013C18.6067 10.2502 18.508 10.489 18.3322 10.6652L16.6418 12.3556C16.5849 12.4125 16.5529 12.4897 16.5529 12.5703C16.5529 12.6508 16.5849 12.728 16.6418 12.7849C16.6987 12.8418 16.7759 12.8738 16.8565 12.8738C16.937 12.8738 17.0142 12.8418 17.0711 12.7849L17.0737 12.7806Z" fill="#121212" stroke="#121212" stroke-width="0.6" stroke-linecap="round" stroke-linejoin="round"/>
</svg>
