<svg width="30" height="20" viewBox="0 0 30 20" fill="none" xmlns="http://www.w3.org/2000/svg">
<path d="M29.4706 0H0.529412C0.389003 0 0.254345 0.0557774 0.155061 0.155061C0.0557771 0.254345 0 0.389003 0 0.529412V18.8824C0 19.0228 0.0557771 19.1574 0.155061 19.2567C0.254345 19.356 0.389003 19.4118 0.529412 19.4118H29.4706C29.611 19.4118 29.7457 19.356 29.8449 19.2567C29.9442 19.1574 30 19.0228 30 18.8824V0.529412C30 0.389003 29.9442 0.254345 29.8449 0.155061C29.7457 0.0557774 29.611 0 29.4706 0ZM28.9412 18.3529H1.05882V1.05882H28.9412V18.3529Z" fill="#6A4EEE"/>
<path d="M3.52982 16.5919H13.7651C13.9055 16.5919 14.0402 16.5361 14.1395 16.4369C14.2387 16.3376 14.2945 16.2029 14.2945 16.0625C14.2694 14.5888 13.6608 13.1851 12.6022 12.1596C11.5435 11.134 10.1213 10.5702 8.64746 10.5919C7.17366 10.5702 5.75143 11.134 4.69277 12.1596C3.63411 13.1851 3.02548 14.5888 3.0004 16.0625C3.0004 16.2029 3.05618 16.3376 3.15547 16.4369C3.25475 16.5361 3.38941 16.5919 3.52982 16.5919ZM8.64746 11.6507C9.7489 11.6341 10.8187 12.019 11.6572 12.7334C12.4957 13.4478 13.0455 14.443 13.2039 15.5331H4.09099C4.24946 14.443 4.79925 13.4478 5.63773 12.7334C6.4762 12.019 7.54603 11.6341 8.64746 11.6507Z" fill="#6A4EEE"/>
<path d="M8.64823 9.52979C9.24158 9.52979 9.8216 9.35384 10.3149 9.02419C10.8083 8.69455 11.1928 8.22601 11.4199 7.67784C11.6469 7.12966 11.7063 6.52646 11.5906 5.94451C11.4748 5.36257 11.1891 4.82802 10.7696 4.40847C10.35 3.98891 9.81545 3.70319 9.23351 3.58743C8.65156 3.47168 8.04836 3.53108 7.50018 3.75815C6.95201 3.98521 6.48347 4.36973 6.15383 4.86308C5.82418 5.35642 5.64824 5.93644 5.64824 6.52979C5.64917 7.32515 5.96554 8.08767 6.52795 8.65007C7.09035 9.21248 7.85287 9.52885 8.64823 9.52979ZM8.64823 4.58861C9.03216 4.58861 9.40747 4.70246 9.72669 4.91576C10.0459 5.12906 10.2947 5.43223 10.4416 5.78693C10.5886 6.14163 10.627 6.53194 10.5521 6.90849C10.4772 7.28504 10.2923 7.63093 10.0209 7.9024C9.74938 8.17388 9.40349 8.35876 9.02694 8.43366C8.65039 8.50856 8.26008 8.47012 7.90538 8.3232C7.55068 8.17628 7.24751 7.92747 7.03421 7.60825C6.82091 7.28902 6.70706 6.91371 6.70706 6.52979C6.70799 6.01524 6.91281 5.52204 7.27665 5.1582C7.64049 4.79436 8.13369 4.58954 8.64823 4.58861Z" fill="#6A4EEE"/>
<path d="M15.3526 6.70189H25.9409C26.0813 6.70189 26.2159 6.64611 26.3152 6.54683C26.4145 6.44755 26.4703 6.31289 26.4703 6.17248C26.4703 6.03207 26.4145 5.89741 26.3152 5.79813C26.2159 5.69884 26.0813 5.64307 25.9409 5.64307H15.3526C15.2122 5.64307 15.0776 5.69884 14.9783 5.79813C14.879 5.89741 14.8232 6.03207 14.8232 6.17248C14.8232 6.31289 14.879 6.44755 14.9783 6.54683C15.0776 6.64611 15.2122 6.70189 15.3526 6.70189Z" fill="#6A4EEE"/>
<path d="M15.3526 11.6501H25.9409C26.0813 11.6501 26.2159 11.5944 26.3152 11.4951C26.4145 11.3958 26.4703 11.2611 26.4703 11.1207C26.4703 10.9803 26.4145 10.8457 26.3152 10.7464C26.2159 10.6471 26.0813 10.5913 25.9409 10.5913H15.3526C15.2122 10.5913 15.0776 10.6471 14.9783 10.7464C14.879 10.8457 14.8232 10.9803 14.8232 11.1207C14.8232 11.2611 14.879 11.3958 14.9783 11.4951C15.0776 11.5944 15.2122 11.6501 15.3526 11.6501Z" fill="#6A4EEE"/>
</svg>
