<svg width="30" height="20" viewBox="0 0 30 20" fill="none" xmlns="http://www.w3.org/2000/svg">
<path d="M29.4706 0H0.529412C0.389003 0 0.254345 0.0557774 0.155061 0.155061C0.0557771 0.254345 0 0.389003 0 0.529412V18.8824C0 19.0228 0.0557771 19.1574 0.155061 19.2567C0.254345 19.356 0.389003 19.4118 0.529412 19.4118H29.4706C29.611 19.4118 29.7457 19.356 29.8449 19.2567C29.9442 19.1574 30 19.0228 30 18.8824V0.529412C30 0.389003 29.9442 0.254345 29.8449 0.155061C29.7457 0.0557774 29.611 0 29.4706 0ZM28.9412 18.3529H1.05882V1.05882H28.9412V18.3529Z" fill="#121212"/>
<path d="M3.52978 16.5919H13.7651C13.9055 16.5919 14.0401 16.5361 14.1394 16.4369C14.2387 16.3376 14.2945 16.2029 14.2945 16.0625C14.2694 14.5888 13.6608 13.1851 12.6021 12.1596C11.5435 11.134 10.1212 10.5702 8.64743 10.5919C7.17362 10.5702 5.75139 11.134 4.69273 12.1596C3.63407 13.1851 3.02544 14.5888 3.00037 16.0625C3.00037 16.2029 3.05614 16.3376 3.15543 16.4369C3.25471 16.5361 3.38937 16.5919 3.52978 16.5919ZM8.64743 11.6507C9.74886 11.6341 10.8187 12.019 11.6572 12.7334C12.4956 13.4478 13.0454 14.443 13.2039 15.5331H4.09095C4.24942 14.443 4.79922 13.4478 5.63769 12.7334C6.47616 12.019 7.54599 11.6341 8.64743 11.6507Z" fill="#121212"/>
<path d="M8.64819 9.52979C9.24154 9.52979 9.82156 9.35384 10.3149 9.02419C10.8083 8.69455 11.1928 8.22601 11.4198 7.67784C11.6469 7.12966 11.7063 6.52646 11.5905 5.94451C11.4748 5.36257 11.1891 4.82802 10.7695 4.40847C10.35 3.98891 9.81541 3.70319 9.23346 3.58743C8.65152 3.47168 8.04832 3.53108 7.50014 3.75815C6.95196 3.98521 6.48343 4.36973 6.15378 4.86308C5.82414 5.35642 5.64819 5.93644 5.64819 6.52979C5.64913 7.32515 5.9655 8.08767 6.5279 8.65007C7.09031 9.21248 7.85283 9.52885 8.64819 9.52979ZM8.64819 4.58861C9.03212 4.58861 9.40743 4.70246 9.72665 4.91576C10.0459 5.12906 10.2947 5.43223 10.4416 5.78693C10.5885 6.14163 10.627 6.53194 10.5521 6.90849C10.4772 7.28504 10.2923 7.63093 10.0208 7.9024C9.74933 8.17388 9.40345 8.35876 9.0269 8.43366C8.65035 8.50856 8.26004 8.47012 7.90534 8.3232C7.55063 8.17628 7.24746 7.92747 7.03416 7.60825C6.82086 7.28902 6.70702 6.91371 6.70702 6.52979C6.70795 6.01524 6.91277 5.52204 7.2766 5.1582C7.64044 4.79436 8.13365 4.58954 8.64819 4.58861Z" fill="#121212"/>
<path d="M15.3527 6.70189H25.9409C26.0813 6.70189 26.216 6.64611 26.3152 6.54683C26.4145 6.44755 26.4703 6.31289 26.4703 6.17248C26.4703 6.03207 26.4145 5.89741 26.3152 5.79813C26.216 5.69884 26.0813 5.64307 25.9409 5.64307H15.3527C15.2122 5.64307 15.0776 5.69884 14.9783 5.79813C14.879 5.89741 14.8232 6.03207 14.8232 6.17248C14.8232 6.31289 14.879 6.44755 14.9783 6.54683C15.0776 6.64611 15.2122 6.70189 15.3527 6.70189Z" fill="#121212"/>
<path d="M15.3527 11.6501H25.9409C26.0813 11.6501 26.216 11.5944 26.3152 11.4951C26.4145 11.3958 26.4703 11.2611 26.4703 11.1207C26.4703 10.9803 26.4145 10.8457 26.3152 10.7464C26.216 10.6471 26.0813 10.5913 25.9409 10.5913H15.3527C15.2122 10.5913 15.0776 10.6471 14.9783 10.7464C14.879 10.8457 14.8232 10.9803 14.8232 11.1207C14.8232 11.2611 14.879 11.3958 14.9783 11.4951C15.0776 11.5944 15.2122 11.6501 15.3527 11.6501Z" fill="#121212"/>
</svg>
