<svg width="14" height="18" viewBox="0 0 14 18" fill="none" xmlns="http://www.w3.org/2000/svg">
<path d="M10.1239 17.9993H3.37462C2.50122 18.0195 1.65547 17.6924 1.02286 17.0899C0.390245 16.4873 0.0224029 15.6585 0 14.7852V14.1425C0.0393015 12.5702 0.701121 11.0778 1.84007 9.99308C2.97903 8.9084 4.50196 8.32019 6.07433 8.35764H7.42417C8.99654 8.32019 10.5195 8.9084 11.6584 9.99308C12.7974 11.0778 13.4592 12.5702 13.4985 14.1425V14.7852C13.4761 15.6585 13.1083 16.4873 12.4756 17.0899C11.843 17.6924 10.9973 18.0195 10.1239 17.9993ZM6.07433 9.643C4.85133 9.6138 3.66676 10.0713 2.78089 10.915C1.89502 11.7587 1.38031 12.9195 1.34985 14.1425V14.7852C1.36302 15.3092 1.58365 15.8067 1.96329 16.1682C2.34294 16.5297 2.85055 16.7257 3.37462 16.7132H10.1239C10.648 16.7257 11.1556 16.5297 11.5352 16.1682C11.9148 15.8067 12.1355 15.3092 12.1487 14.7852V14.1425C12.1182 12.9195 11.6035 11.7587 10.7176 10.915C9.83174 10.0713 8.64717 9.6138 7.42417 9.643H6.07433Z" fill="#121212"/>
<path d="M6.74938 7.71477C5.70109 7.73974 4.68577 7.34756 3.92646 6.62439C3.16715 5.90121 2.72596 4.9062 2.69983 3.85794C2.72596 2.80969 3.16715 1.81468 3.92646 1.0915C4.68577 0.368333 5.70109 -0.0238469 6.74938 0.00112334C7.79766 -0.0238469 8.81299 0.368333 9.5723 1.0915C10.3316 1.81468 10.7728 2.80969 10.7989 3.85794C10.7728 4.9062 10.3316 5.90121 9.5723 6.62439C8.81299 7.34756 7.79766 7.73974 6.74938 7.71477ZM6.74938 1.28723C6.05046 1.27052 5.3735 1.53198 4.86727 2.01416C4.36105 2.49635 4.06697 3.15979 4.04968 3.85869C4.06697 4.5576 4.36105 5.22104 4.86727 5.70322C5.3735 6.18541 6.05046 6.44687 6.74938 6.43016C7.44842 6.44687 8.12549 6.1853 8.63174 5.70296C9.13799 5.22062 9.43198 4.55698 9.44908 3.85794C9.43179 3.15904 9.13771 2.4956 8.63148 2.01341C8.12526 1.53123 7.4483 1.26977 6.74938 1.28648V1.28723Z" fill="#121212"/>
</svg>
