<svg width="20" height="20" viewBox="0 0 20 20" fill="none" xmlns="http://www.w3.org/2000/svg">
<path d="M10 19C14.9706 19 19 14.9706 19 10C19 5.02944 14.9706 1 10 1C5.02944 1 1 5.02944 1 10C1 14.9706 5.02944 19 10 19Z" stroke="#121212" stroke-width="1.2" stroke-miterlimit="10" stroke-linejoin="round"/>
<path d="M9.9997 12.7704C11.5291 12.7704 12.7689 11.5306 12.7689 10.0012C12.7689 8.47176 11.5291 7.23193 9.9997 7.23193C8.4703 7.23193 7.23047 8.47176 7.23047 10.0012C7.23047 11.5306 8.4703 12.7704 9.9997 12.7704Z" stroke="#121212" stroke-width="1.2" stroke-miterlimit="10" stroke-linejoin="round"/>
<path d="M10 1V7.23077" stroke="#121212" stroke-width="1.2" stroke-miterlimit="10" stroke-linejoin="round"/>
<path d="M12.7695 10H19.0003" stroke="#121212" stroke-width="1.2" stroke-miterlimit="10" stroke-linejoin="round"/>
<path d="M11.9382 11.939L16.369 16.3697" stroke="#121212" stroke-width="1.2" stroke-miterlimit="10" stroke-linejoin="round"/>
</svg>
