<svg width="18" height="18" viewBox="0 0 18 18" fill="none" xmlns="http://www.w3.org/2000/svg">
<path d="M8.43213 6.16895C8.43213 5.68392 8.70231 5.44141 9.24268 5.44141C9.78304 5.44141 10.0532 5.68392 10.0532 6.16895C10.0532 6.40007 9.98486 6.58073 9.84814 6.71094C9.71468 6.83789 9.51286 6.90137 9.24268 6.90137C8.70231 6.90137 8.43213 6.65723 8.43213 6.16895ZM9.98486 13.0391H8.49561V7.58008H9.98486V13.0391Z" fill="#121212"/>
<path d="M8.99996 17.3574C13.6155 17.3574 17.3571 13.6157 17.3571 9.00021C17.3571 4.38469 13.6155 0.643066 8.99996 0.643066C4.38444 0.643066 0.642822 4.38469 0.642822 9.00021C0.642822 13.6157 4.38444 17.3574 8.99996 17.3574Z" stroke="#121212" stroke-width="1.2"/>
</svg>
