<svg width="28" height="20" viewBox="0 0 28 20" fill="none" xmlns="http://www.w3.org/2000/svg">
<path d="M25.0888 0.118343H16.8379L17.3112 0.473373C17.3112 0.347825 17.2613 0.227423 17.1726 0.138646C17.0838 0.0498701 16.9634 0 16.8379 0H10.6178C10.4922 0 10.3718 0.0498701 10.283 0.138646C10.1943 0.227423 10.1444 0.347825 10.1444 0.473373L10.6178 0.118343H2.36686C1.73913 0.118343 1.13711 0.367716 0.69324 0.811597C0.249363 1.25543 0 1.85747 0 2.48521V17.6331C0 18.2609 0.249363 18.8629 0.69324 19.3067C1.13711 19.7506 1.73913 20 2.36686 20H25.0888C25.7165 20 26.3185 19.7506 26.7624 19.3067C27.2062 18.8629 27.4556 18.2609 27.4556 17.6331V2.48521C27.4556 1.85747 27.2062 1.25543 26.7624 0.811597C26.3185 0.367716 25.7165 0.118343 25.0888 0.118343ZM11.6497 8.00473C11.6507 7.59394 11.7733 7.19262 12.0022 6.8515C12.2311 6.51039 12.556 6.24473 12.9358 6.08819C13.3156 5.93165 13.7333 5.89117 14.1361 5.97188C14.5389 6.05259 14.9088 6.25089 15.1989 6.54168C15.4891 6.83252 15.6865 7.20279 15.7663 7.60577C15.8461 8.00876 15.8047 8.42637 15.6473 8.80582C15.4898 9.18528 15.2235 9.50954 14.8818 9.73766C14.5402 9.96582 14.1386 10.0876 13.7278 10.0876C13.1762 10.0863 12.6477 9.86632 12.2581 9.47583C11.8685 9.0854 11.6497 8.55631 11.6497 8.00473ZM13.7278 11.0343C14.6942 11.0353 15.6345 11.3475 16.4096 11.9247C17.1846 12.5019 17.7531 13.3135 18.0308 14.2391C17.4717 14.8197 16.8011 15.2817 16.0594 15.5973C15.3175 15.9128 14.5197 16.0754 13.7136 16.0754C12.9075 16.0754 12.1097 15.9128 11.3679 15.5973C10.6261 15.2817 9.95555 14.8197 9.39645 14.2391C9.67555 13.3088 10.2483 12.4939 11.0291 11.9162C11.8098 11.3385 12.7566 11.0292 13.7278 11.0343ZM18.7408 13.4012C18.4452 12.7141 18.011 12.0954 17.4652 11.5839C16.9195 11.0723 16.274 10.679 15.5692 10.4284C16.0706 10.0436 16.439 9.51148 16.6224 8.9067C16.8059 8.30187 16.7953 7.65482 16.5921 7.05633C16.389 6.45785 16.0035 5.93804 15.4897 5.56989C14.976 5.20175 14.3598 5.00379 13.7278 5.00379C13.0958 5.00379 12.4796 5.20175 11.9659 5.56989C11.4522 5.93804 11.0667 6.45785 10.8635 7.05633C10.6603 7.65482 10.6498 8.30187 10.8332 8.9067C11.0167 9.51148 11.385 10.0436 11.8864 10.4284C11.1816 10.679 10.5361 11.0723 9.99039 11.5839C9.44464 12.0954 9.01041 12.7141 8.71479 13.4012C8.05974 12.4203 7.71049 11.2671 7.71124 10.0876C7.71124 8.49188 8.34514 6.96156 9.47347 5.83323C10.6018 4.7049 12.1321 4.07101 13.7278 4.07101C15.3235 4.07101 16.8538 4.7049 17.9822 5.83323C19.1105 6.96156 19.7444 8.49188 19.7444 10.0876C19.7404 11.259 19.3914 12.4033 18.7408 13.3775V13.4012ZM15.9006 0.970414V3.44142C14.4962 2.9743 12.9784 2.9743 11.574 3.44142V0.946746L15.9006 0.970414ZM26.5089 17.6331C26.5089 18.0098 26.3592 18.371 26.0929 18.6373C25.8266 18.9036 25.4654 19.0533 25.0888 19.0533H2.36686C1.99022 19.0533 1.62901 18.9036 1.36269 18.6373C1.09636 18.371 0.946746 18.0098 0.946746 17.6331V2.48521C0.946746 2.10854 1.09636 1.74736 1.36269 1.48104C1.62901 1.21472 1.99022 1.06509 2.36686 1.06509H10.6178V3.83432C9.21392 4.5351 8.08795 5.68942 7.42225 7.11025C6.75659 8.53103 6.59025 10.135 6.95025 11.6622C7.31025 13.1893 8.17543 14.5501 9.40563 15.524C10.6358 16.4979 12.1588 17.0278 13.7278 17.0278C15.2968 17.0278 16.8198 16.4979 18.05 15.524C19.2802 14.5501 20.1454 13.1893 20.5054 11.6622C20.8654 10.135 20.699 8.53103 20.0334 7.11025C19.3677 5.68942 18.2417 4.5351 16.8379 3.83432V1.06509H25.0888C25.4654 1.06509 25.8266 1.21472 26.0929 1.48104C26.3592 1.74736 26.5089 2.10854 26.5089 2.48521V17.6331Z" fill="#121212"/>
</svg>
