<svg width="25" height="22" viewBox="0 0 25 22" fill="none" xmlns="http://www.w3.org/2000/svg">
<path d="M15.8044 7.6742C17.6431 7.6742 19.1337 6.18363 19.1337 4.34491C19.1337 2.5062 17.6431 1.01562 15.8044 1.01562C13.9657 1.01562 12.4751 2.5062 12.4751 4.34491C12.4751 6.18363 13.9657 7.6742 15.8044 7.6742Z" stroke="#6A4EEE" stroke-width="1.3" stroke-linecap="round" stroke-linejoin="round"/>
<path d="M11.9214 11.0063H12.921C12.735 10.2168 12.2879 9.51317 11.6522 9.0094C11.0165 8.50563 10.2293 8.23117 9.41823 8.23047H4.61017C3.65269 8.23047 2.73443 8.61083 2.05739 9.28786C1.38036 9.9649 1 10.8832 1 11.8406C1 12.7981 1.38036 13.7164 2.05739 14.3934C2.73443 15.0705 3.65269 15.4508 4.61017 15.4508H7.47683C7.47683 14.272 7.94509 13.1416 8.77861 12.308C9.61213 11.4745 10.7426 11.0063 11.9214 11.0063V11.0063Z" stroke="#6A4EEE" stroke-width="1.3" stroke-linecap="round" stroke-linejoin="round"/>
<path d="M7.01439 5.82456C7.4922 5.8262 7.95973 5.6859 8.35769 5.42146C8.75565 5.15703 9.06612 4.78037 9.24972 4.33924C9.43333 3.89812 9.48179 3.4124 9.38898 2.9437C9.29616 2.47499 9.06625 2.04441 8.72839 1.70654C8.39052 1.36868 7.95994 1.13877 7.49123 1.04595C7.02253 0.953136 6.53681 1.0016 6.09569 1.18521C5.65457 1.36881 5.2779 1.67928 5.01347 2.07724C4.74903 2.4752 4.60873 2.94273 4.61037 3.42054C4.61037 4.05812 4.86365 4.6696 5.31449 5.12044C5.76533 5.57128 6.37681 5.82456 7.01439 5.82456V5.82456Z" stroke="#6A4EEE" stroke-width="1.3" stroke-linecap="round" stroke-linejoin="round"/>
<path d="M19.6867 11.0039H11.9211C9.46646 11.0039 7.47656 12.9938 7.47656 15.4485V16.5555C7.47656 19.0101 9.46646 21 11.9211 21H19.6867C22.1414 21 24.1313 19.0101 24.1313 16.5555V15.4485C24.1313 12.9938 22.1414 11.0039 19.6867 11.0039Z" stroke="#6A4EEE" stroke-width="1.3" stroke-linecap="round" stroke-linejoin="round"/>
</svg>
