<svg width="195" height="160" viewBox="0 0 195 160" fill="none" xmlns="http://www.w3.org/2000/svg">
<path d="M105.325 10.8667C88.1249 28.6728 79.1087 29.9582 57.3015 39.8344C39.4683 47.8865 21.8161 63.5426 15.7917 83.0505C-0.0907269 134.4 70.4275 140.837 103.727 132.45C127.168 126.543 136.546 112.942 142.485 90.3558C144.793 81.5795 145.467 72.0881 149.274 63.7373C153.347 54.7618 161.725 50.394 165.894 42.5139C186.076 4.34897 128.25 -12.8732 105.325 10.8667Z" fill="#407BFF"/>
<path opacity="0.9" d="M105.325 10.8667C88.1249 28.6728 79.1087 29.9582 57.3015 39.8344C39.4683 47.8865 21.8161 63.5426 15.7917 83.0505C-0.0907269 134.4 70.4275 140.837 103.727 132.45C127.168 126.543 136.546 112.942 142.485 90.3558C144.793 81.5795 145.467 72.0881 149.274 63.7373C153.347 54.7618 161.725 50.394 165.894 42.5139C186.076 4.34897 128.25 -12.8732 105.325 10.8667Z" fill="#EFECFF"/>
<path d="M89.4829 160.001C137.951 160.001 177.241 157.707 177.241 154.877C177.241 152.047 137.951 149.753 89.4829 149.753C41.0152 149.753 1.72437 152.047 1.72437 154.877C1.72437 157.707 41.0152 160.001 89.4829 160.001Z" fill="#F5F5F5"/>
<path d="M0 17.8571C0.00238712 17.104 0.302626 16.3824 0.835173 15.8498C1.36772 15.3173 2.08932 15.017 2.84246 15.0146H129.676C130.429 15.017 131.15 15.3173 131.683 15.8498C132.216 16.3824 132.516 17.104 132.518 17.8571V27.0046H0V17.8571Z" fill="#263238"/>
<path d="M22.9795 23.4072C22.505 23.4072 22.0412 23.2665 21.6467 23.0029C21.2522 22.7393 20.9447 22.3646 20.7632 21.9263C20.5816 21.4879 20.5341 21.0056 20.6267 20.5403C20.7192 20.0749 20.9477 19.6475 21.2832 19.312C21.6187 18.9765 22.0461 18.748 22.5115 18.6555C22.9768 18.5629 23.4591 18.6104 23.8975 18.792C24.3358 18.9735 24.7105 19.281 24.9741 19.6755C25.2376 20.07 25.3783 20.5338 25.3783 21.0083C25.3783 21.6445 25.1256 22.2547 24.6757 22.7045C24.2258 23.1544 23.6157 23.4072 22.9795 23.4072ZM22.9795 19.1118C22.6044 19.1118 22.2377 19.223 21.9258 19.4314C21.614 19.6398 21.3709 19.936 21.2273 20.2825C21.0838 20.629 21.0462 21.0104 21.1194 21.3782C21.1926 21.7461 21.3732 22.084 21.6384 22.3493C21.9037 22.6145 22.2416 22.7951 22.6095 22.8683C22.9773 22.9415 23.3587 22.9039 23.7052 22.7604C24.0517 22.6168 24.3479 22.3738 24.5563 22.0619C24.7647 21.75 24.8759 21.3834 24.8759 21.0083C24.8747 20.5057 24.6745 20.024 24.3191 19.6686C23.9637 19.3132 23.4821 19.113 22.9795 19.1118Z" fill="#F0F0F0"/>
<path d="M15.3614 23.4071C14.8871 23.4063 14.4238 23.2648 14.0299 23.0007C13.636 22.7365 13.3292 22.3616 13.1483 21.9231C12.9675 21.4847 12.9206 21.0025 13.0137 20.5375C13.1068 20.0725 13.3356 19.6454 13.6713 19.3104C14.0069 18.9754 14.4344 18.7473 14.8996 18.6551C15.3648 18.5629 15.8469 18.6107 16.285 18.7924C16.7231 18.9741 17.0974 19.2816 17.3608 19.676C17.6242 20.0704 17.7648 20.534 17.7648 21.0083C17.7648 21.3237 17.7026 21.636 17.5818 21.9273C17.4609 22.2187 17.2838 22.4833 17.0606 22.7061C16.8374 22.9289 16.5724 23.1056 16.2808 23.2258C15.9892 23.3461 15.6768 23.4077 15.3614 23.4071ZM15.3614 19.1118C14.9865 19.1127 14.6203 19.2247 14.309 19.4336C13.9977 19.6425 13.7554 19.939 13.6125 20.2856C13.4697 20.6323 13.4328 21.0134 13.5064 21.381C13.5801 21.7486 13.7611 22.0861 14.0265 22.3509C14.2919 22.6156 14.6298 22.7958 14.9976 22.8686C15.3654 22.9414 15.7464 22.9036 16.0927 22.7599C16.439 22.6163 16.7349 22.3732 16.9431 22.0614C17.1513 21.7496 17.2624 21.3832 17.2624 21.0083C17.2612 20.5049 17.0604 20.0225 16.704 19.667C16.3476 19.3114 15.8648 19.1118 15.3614 19.1118Z" fill="#F0F0F0"/>
<path d="M7.74788 23.4071C7.27362 23.4063 6.81026 23.2648 6.41636 23.0007C6.02246 22.7365 5.7157 22.3616 5.53482 21.9231C5.35395 21.4847 5.30709 21.0025 5.40016 20.5375C5.49324 20.0725 5.72206 19.6454 6.05773 19.3104C6.3934 18.9754 6.82085 18.7473 7.28607 18.6551C7.75128 18.5629 8.23339 18.6107 8.67146 18.7924C9.10954 18.9741 9.48392 19.2816 9.74732 19.676C10.0107 20.0704 10.1513 20.534 10.1513 21.0083C10.1513 21.3237 10.0891 21.636 9.96826 21.9273C9.84742 22.2187 9.67031 22.4833 9.44707 22.7061C9.22384 22.9289 8.95885 23.1056 8.66728 23.2258C8.37571 23.3461 8.06328 23.4077 7.74788 23.4071ZM7.74788 19.1118C7.37279 19.1118 7.00613 19.223 6.69425 19.4314C6.38238 19.6398 6.1393 19.936 5.99576 20.2825C5.85222 20.629 5.81466 21.0104 5.88784 21.3782C5.96101 21.7461 6.14164 22.084 6.40686 22.3493C6.67209 22.6145 7.01001 22.7951 7.37789 22.8683C7.74577 22.9415 8.12709 22.9039 8.47363 22.7604C8.82017 22.6168 9.11635 22.3738 9.32474 22.0619C9.53313 21.75 9.64436 21.3833 9.64436 21.0083C9.64316 20.5056 9.44297 20.024 9.08757 19.6686C8.73217 19.3132 8.25049 19.113 7.74788 19.1118Z" fill="#F0F0F0"/>
<path d="M129.676 114.294H2.84246C2.08932 114.292 1.36772 113.992 0.835173 113.459C0.302626 112.927 0.00238712 112.205 0 111.452V27.0156H132.518V111.452C132.516 112.205 132.216 112.927 131.683 113.459C131.15 113.992 130.429 114.292 129.676 114.294Z" fill="#6A4EEE"/>
<path d="M131.713 29.4404H0.806396V104.272H131.713V29.4404Z" fill="white"/>
<path d="M58.8096 35.8589H8.94445C7.99205 35.8589 7.21997 36.631 7.21997 37.5834V44.2414C7.21997 45.1938 7.99205 45.9659 8.94445 45.9659H58.8096C59.762 45.9659 60.5341 45.1938 60.5341 44.2414V37.5834C60.5341 36.631 59.762 35.8589 58.8096 35.8589Z" fill="#6A4EEE"/>
<path d="M123.574 36.3115C123.911 36.3115 124.235 36.4455 124.473 36.684C124.712 36.9225 124.846 37.246 124.846 37.5834V44.2414C124.846 44.5787 124.712 44.9022 124.473 45.1408C124.235 45.3793 123.911 45.5133 123.574 45.5133H73.7089C73.3715 45.5133 73.048 45.3793 72.8095 45.1408C72.571 44.9022 72.437 44.5787 72.437 44.2414V37.5834C72.437 37.246 72.571 36.9225 72.8095 36.684C73.048 36.4455 73.3715 36.3115 73.7089 36.3115H123.574ZM123.574 35.8589H73.7089C73.2519 35.8601 72.8139 36.0421 72.4908 36.3653C72.1676 36.6884 71.9856 37.1264 71.9844 37.5834V44.2414C71.9844 44.6988 72.1661 45.1374 72.4895 45.4608C72.8129 45.7842 73.2515 45.9659 73.7089 45.9659H123.574C124.031 45.9659 124.47 45.7842 124.793 45.4608C125.117 45.1374 125.299 44.6988 125.299 44.2414V37.5834C125.297 37.1264 125.115 36.6884 124.792 36.3653C124.469 36.0421 124.031 35.8601 123.574 35.8589Z" fill="#6A4EEE"/>
<path d="M16.0823 50.4971C17.7456 50.4971 19.3715 50.9903 20.7545 51.9143C22.1374 52.8384 23.2153 54.1518 23.8518 55.6885C24.4883 57.2252 24.6549 58.9161 24.3304 60.5474C24.0059 62.1787 23.2049 63.6772 22.0288 64.8533C20.8527 66.0294 19.3542 66.8303 17.7229 67.1548C16.0916 67.4793 14.4007 67.3128 12.864 66.6763C11.3274 66.0398 10.014 64.9619 9.08988 63.5789C8.16582 62.1959 7.6726 60.57 7.6726 58.9067C7.67499 56.6771 8.56178 54.5394 10.1384 52.9628C11.715 51.3862 13.8526 50.4994 16.0823 50.4971ZM16.0823 50.0444C14.3295 50.0444 12.616 50.5642 11.1586 51.538C9.70125 52.5118 8.56535 53.8959 7.89458 55.5153C7.22381 57.1346 7.04831 58.9166 7.39026 60.6357C7.73221 62.3548 8.57627 63.9339 9.81568 65.1733C11.0551 66.4127 12.6342 67.2568 14.3533 67.5987C16.0724 67.9407 17.8544 67.7652 19.4737 67.0944C21.0931 66.4237 22.4772 65.2878 23.451 63.8304C24.4248 62.373 24.9446 60.6595 24.9446 58.9067C24.9446 56.5563 24.0109 54.3021 22.3489 52.6401C20.6869 50.9781 18.4327 50.0444 16.0823 50.0444Z" fill="#6A4EEE"/>
<path opacity="0.4" d="M22.4946 62.3849C21.867 63.5436 20.9381 64.5113 19.806 65.1857C18.6739 65.8601 17.3806 66.2161 16.0628 66.2161C14.7451 66.2161 13.4518 65.8601 12.3197 65.1857C11.1875 64.5113 10.2586 63.5436 9.6311 62.3849C11.535 61.113 13.7732 60.4341 16.0628 60.4341C18.3525 60.4341 20.5907 61.113 22.4946 62.3849Z" fill="#B9AAFD"/>
<path opacity="0.4" d="M16.0811 59.6559C17.881 59.6559 19.34 58.1969 19.34 56.397C19.34 54.5972 17.881 53.1382 16.0811 53.1382C14.2813 53.1382 12.8223 54.5972 12.8223 56.397C12.8223 58.1969 14.2813 59.6559 16.0811 59.6559Z" fill="#B9AAFD"/>
<path opacity="0.4" d="M120.741 63.4618H34.4807C33.2719 63.4618 32.1126 62.9816 31.2578 62.1269C30.4031 61.2721 29.9229 60.1128 29.9229 58.9039C29.9229 58.3056 30.0408 57.7131 30.2699 57.1604C30.499 56.6077 30.8348 56.1055 31.2581 55.6826C31.6814 55.2598 32.1839 54.9245 32.7369 54.6959C33.2898 54.4673 33.8824 54.35 34.4807 54.3506H120.741C121.339 54.35 121.932 54.4673 122.485 54.6959C123.038 54.9245 123.54 55.2598 123.964 55.6826C124.387 56.1055 124.723 56.6077 124.952 57.1604C125.181 57.7131 125.299 58.3056 125.299 58.9039C125.299 60.1128 124.819 61.2721 123.964 62.1269C123.109 62.9816 121.95 63.4618 120.741 63.4618Z" fill="#B9AAFD"/>
<path d="M16.0823 74.6533C17.7456 74.6533 19.3715 75.1465 20.7545 76.0706C22.1374 76.9947 23.2153 78.3081 23.8518 79.8447C24.4883 81.3814 24.6549 83.0723 24.3304 84.7036C24.0059 86.335 23.2049 87.8334 22.0288 89.0095C20.8527 90.1856 19.3542 90.9866 17.7229 91.3111C16.0916 91.6356 14.4007 91.469 12.864 90.8325C11.3274 90.196 10.014 89.1181 9.08988 87.7352C8.16582 86.3522 7.6726 84.7263 7.6726 83.063C7.6738 80.833 8.5602 78.6946 10.1371 77.1178C11.7139 75.5409 13.8523 74.6545 16.0823 74.6533ZM16.0823 74.2007C14.3295 74.2007 12.616 74.7204 11.1586 75.6942C9.70125 76.6681 8.56535 78.0522 7.89458 79.6715C7.22381 81.2909 7.04831 83.0728 7.39026 84.7919C7.73221 86.5111 8.57627 88.0902 9.81568 89.3296C11.0551 90.569 12.6342 91.4131 14.3533 91.755C16.0724 92.097 17.8544 91.9215 19.4737 91.2507C21.0931 90.5799 22.4772 89.444 23.451 87.9866C24.4248 86.5292 24.9446 84.8158 24.9446 83.063C24.9446 80.7126 24.0109 78.4584 22.3489 76.7964C20.6869 75.1344 18.4327 74.2007 16.0823 74.2007Z" fill="#6A4EEE"/>
<path opacity="0.4" d="M22.4946 86.5219C21.867 87.6806 20.9381 88.6483 19.806 89.3227C18.6739 89.9971 17.3806 90.3531 16.0628 90.3531C14.7451 90.3531 13.4518 89.9971 12.3197 89.3227C11.1875 88.6483 10.2586 87.6806 9.6311 86.5219C11.5361 85.2528 13.7739 84.5757 16.0628 84.5757C18.3518 84.5757 20.5896 85.2528 22.4946 86.5219Z" fill="#B9AAFD"/>
<path opacity="0.4" d="M16.0811 83.7892C17.881 83.7892 19.34 82.3302 19.34 80.5303C19.34 78.7305 17.881 77.2715 16.0811 77.2715C14.2813 77.2715 12.8223 78.7305 12.8223 80.5303C12.8223 82.3302 14.2813 83.7892 16.0811 83.7892Z" fill="#B9AAFD"/>
<path opacity="0.4" d="M34.4807 78.4819H120.741C121.95 78.4819 123.109 78.9621 123.964 79.8169C124.819 80.6717 125.299 81.831 125.299 83.0398C125.299 84.2487 124.819 85.408 123.964 86.2627C123.109 87.1175 121.95 87.5977 120.741 87.5977H34.4807C33.2719 87.5977 32.1126 87.1175 31.2578 86.2627C30.4031 85.408 29.9229 84.2487 29.9229 83.0398C29.9223 82.4411 30.0397 81.8481 30.2686 81.2949C30.4974 80.7416 30.8331 80.2389 31.2565 79.8156C31.6799 79.3922 32.1826 79.0565 32.7358 78.8277C33.2891 78.5988 33.882 78.4813 34.4807 78.4819Z" fill="#B9AAFD"/>
<path opacity="0.1" d="M99.4951 87.4581C99.4947 90.2269 99.766 92.9891 100.305 95.7048C97.774 97.2082 95.6763 99.3428 94.2173 101.9C92.7583 104.457 91.9879 107.349 91.9816 110.293C91.9725 111.637 92.1244 112.977 92.4342 114.285H129.676C130.429 114.283 131.151 113.982 131.683 113.45C132.216 112.917 132.516 112.196 132.518 111.442V46.2651C123.154 48.3596 114.781 53.58 108.779 61.0672C102.776 68.5544 99.5023 77.862 99.4951 87.4581Z" fill="black"/>
<path d="M168.299 115.872C183.004 101.167 183.004 77.3266 168.299 62.622C153.595 47.9174 129.754 47.9174 115.049 62.622C100.345 77.3266 100.345 101.167 115.049 115.872C129.754 130.577 153.595 130.577 168.299 115.872Z" fill="#6A4EEE"/>
<path d="M166.123 113.472C179.528 100.066 179.528 78.332 166.123 64.9266C152.717 51.5212 130.983 51.5212 117.577 64.9266C104.172 78.332 104.172 100.066 117.577 113.472C130.983 126.877 152.717 126.877 166.123 113.472Z" fill="white"/>
<path d="M130.269 66.168L128.078 68.9742C128.078 68.9742 126.155 70.4316 125.426 71.6899C124.575 72.5318 123.797 73.3963 123.027 74.3061C122.145 75.3463 121.323 76.4359 120.565 77.5695C119.734 78.7817 119.048 80.0865 118.519 81.4575C118.184 82.3252 117.999 83.2435 117.971 84.1732C117.959 84.8307 118.076 85.4842 118.315 86.0968C118.615 86.8472 119.111 87.5036 119.75 87.9978L120.23 88.3599L120.95 88.4957C122.37 88.7657 123.812 88.9081 125.258 88.9212L125.829 88.8714L125.24 83.1322C124.756 83.1322 123.715 83.2272 123.24 83.2182C123.24 83.1277 123.276 83.0371 123.299 82.9466C123.585 81.8542 123.98 80.793 124.475 79.7783C124.982 78.6784 125.566 77.5785 126.173 76.4832C126.707 75.5146 127.282 74.5414 127.838 73.5909L130.554 71.88L132.143 69.0602L130.269 66.168ZM123.204 84.0465C123.2 84.0028 123.2 83.9589 123.204 83.9152C123.223 83.9474 123.237 83.9826 123.244 84.0193C123.258 84.1279 123.226 84.1325 123.204 84.0465Z" fill="#7F3E3B"/>
<path d="M145.694 72.2374C145.762 71.8888 145.654 71.8662 145.563 71.8662C145.481 71.8998 145.408 71.9515 145.35 72.0173C145.291 72.0832 145.248 72.1615 145.224 72.2464C144.797 72.9157 144.245 73.4966 143.599 73.9573C143.508 74.0207 143.422 74.0886 143.327 74.1519C142.535 74.6824 141.613 74.9861 140.661 75.03C140.661 75.1251 140.693 75.2201 140.711 75.3152C140.743 75.537 140.77 75.7678 140.783 75.976C140.888 77.4199 140.507 78.7641 138.882 79.5291C138.882 79.6196 138.661 79.7146 138.588 79.778C137.987 80.3074 137.603 81.0413 137.511 81.8374C137.511 82.4258 138.068 82.892 138.715 83.4533L139.62 84.0643L140.86 83.9466C144.667 82.8287 146.446 79.3525 146.364 79.0946C145.387 77.4832 145.4 74.6589 145.694 72.2374Z" fill="#7F3E3B"/>
<path d="M153.923 80.4836L153.235 80.3659C152.329 80.2211 148.292 79.3068 146.341 79.1348C145.889 80.0988 144.404 82.4525 140.598 83.5704L139.656 83.7922L138.751 83.3396C138.471 83.1379 138.238 82.8782 138.068 82.5782C137.898 82.2783 137.794 81.9452 137.764 81.6015C137.795 81.2481 137.899 80.9048 138.068 80.5933C138.238 80.2817 138.471 80.0086 138.751 79.7911C138.784 79.7624 138.81 79.7269 138.828 79.687C138.828 79.5783 138.828 79.5059 138.828 79.4969C138.543 79.5331 134.931 80.0807 134.627 80.1305C131.223 80.7597 127.88 81.6881 124.638 82.9051L124.674 83.231L125.331 88.9295L125.575 91.0885C125.575 91.0885 127.386 90.8848 129.762 90.4684C129.115 96.2348 128.988 104.59 130.966 115.331L138.692 115.186L152.117 114.937C152.171 114.032 152.071 112.158 151.976 109.596L151.854 105.64C151.782 102.146 151.795 97.9457 152.108 93.4557C152.157 92.7451 152.216 92.0299 152.28 91.3057C155.023 94.2704 157.77 97.1038 157.77 97.1038L159.069 95.8545C160.73 95.0534 162.038 93.6186 163.179 91.8941L164.704 90.4231C164.704 90.4231 157.634 81.1082 153.923 80.4836Z" fill="#6A4EEE"/>
<path opacity="0.3" d="M150.207 88.9785C150.31 89.9208 150.611 90.8307 151.089 91.649L152.13 93.4323C152.18 92.7217 152.239 92.0065 152.302 91.2824C151.587 90.4993 150.872 89.7253 150.207 88.9785Z" fill="black"/>
<path opacity="0.3" d="M152.307 91.2886C152.243 92.0128 152.185 92.7279 152.135 93.4385C152.18 92.7279 152.243 92.0082 152.307 91.2886Z" fill="black"/>
<path d="M140.661 75.0308C140.661 75.1259 140.693 75.2211 140.711 75.3163C140.711 75.2211 140.679 75.1259 140.661 75.0308Z" fill="#7F3E3B"/>
<path opacity="0.2" d="M140.783 75.9748C140.783 75.7575 140.742 75.5222 140.711 75.314C140.742 75.5357 140.77 75.7575 140.783 75.9748Z" fill="black"/>
<path d="M143.598 73.9575C143.508 74.0209 143.422 74.0888 143.327 74.1521C142.535 74.6826 141.613 74.9863 140.661 75.0302C140.661 75.1253 140.693 75.2203 140.711 75.3154C140.742 75.5372 140.77 75.768 140.783 75.9762C140.783 75.9762 140.783 76.0034 140.783 76.0169C141.957 75.7305 142.97 74.9898 143.598 73.9575Z" fill="#7F3E3B"/>
<path d="M148.682 79.8247C148.642 79.6386 148.55 79.4677 148.417 79.3316C148.284 79.1954 148.115 79.0996 147.93 79.0552L146.989 78.8289C146.871 78.8012 146.748 78.8122 146.637 78.8603C146.526 78.9084 146.433 78.9911 146.373 79.096L146.342 79.1367C145.889 80.1008 144.404 82.4544 140.598 83.5724L140.304 83.6403L139.656 83.7942L138.751 83.3415C138.471 83.1398 138.238 82.8801 138.068 82.5802C137.898 82.2802 137.794 81.9471 137.764 81.6035C137.795 81.25 137.899 80.9067 138.069 80.5952C138.239 80.2836 138.471 80.0105 138.751 79.793C138.801 79.7421 138.845 79.686 138.882 79.6255C138.923 79.5214 138.914 79.4716 138.842 79.4264C137.841 78.7067 135.605 79.8156 135.515 80.0057C135.42 80.1008 135.325 80.2004 135.23 80.3135C134.951 80.6421 134.742 81.0248 134.618 81.4375C134.493 81.8502 134.455 82.2842 134.506 82.7124C134.6 83.4325 134.855 84.1222 135.252 84.7302C135.65 85.3383 136.179 85.8491 136.8 86.2247C136.821 86.2313 136.843 86.2313 136.864 86.2247C136.887 86.2315 136.913 86.2315 136.936 86.2247C136.956 86.2109 136.972 86.1926 136.983 86.1714C136.994 86.1501 137 86.1265 137 86.1025C137.001 85.5674 137.161 85.0448 137.459 84.6003C137.757 84.1558 138.18 83.8092 138.674 83.6041L139.466 84.0295C136.063 97.9974 138.371 114.74 138.434 115.192H138.697C138.697 115.02 136.298 98.1332 139.729 84.0884L140.557 83.8892C141.521 85.066 141.064 86.8131 141.06 86.8313C141.053 86.8554 141.054 86.8809 141.061 86.9049C141.068 86.9288 141.082 86.9503 141.1 86.967C141.126 86.9879 141.158 86.9991 141.191 86.9987C141.207 87.0034 141.224 87.0034 141.241 86.9987C141.422 86.9172 145.703 85.0434 147.202 83.2555C147.909 82.4012 148.408 81.394 148.659 80.3135C148.709 80.1553 148.716 79.9868 148.682 79.8247Z" fill="white"/>
<path opacity="0.2" d="M143.598 73.9575C143.508 74.0209 143.422 74.0888 143.327 74.1521C142.535 74.6826 141.613 74.9863 140.661 75.0302C140.661 75.1253 140.693 75.2203 140.711 75.3154C140.742 75.5372 140.77 75.768 140.783 75.9762C140.783 75.9762 140.783 76.0034 140.783 76.0169C141.957 75.7305 142.97 74.9898 143.598 73.9575Z" fill="black"/>
<path d="M137.008 63.3987C137.443 62.6014 138.004 61.8799 138.67 61.2623C138.372 61.0414 138.112 60.774 137.9 60.4702C137.19 60.8052 136.515 61.7511 136.167 63.8694C136.083 64.3691 136.071 64.8781 136.13 65.3811C136.261 64.983 136.412 64.5917 136.583 64.2089L137.008 63.3987Z" fill="#263238"/>
<path d="M145.427 68.9569C147.468 66.5897 146.169 63.5798 144.975 62.9054C145.196 59.737 140.647 59.3296 138.674 61.2623C138.008 61.88 137.447 62.6014 137.013 63.3987L136.601 64.2089C136.43 64.5918 136.279 64.983 136.148 65.3812C135.651 66.8123 135.391 68.3153 135.379 69.8304C135.376 70.5223 135.511 71.2079 135.777 71.8465C136.044 72.4852 136.435 73.064 136.929 73.5488C137.422 74.0336 138.008 74.4145 138.652 74.6691C139.295 74.9237 139.983 75.0468 140.675 75.0311C141.627 74.9871 142.549 74.6834 143.341 74.153C143.436 74.0896 143.522 74.0217 143.612 73.9583C144.259 73.4976 144.81 72.9168 145.237 72.2474C146.242 70.6225 145.979 69.8033 145.427 68.9569Z" fill="#7F3E3B"/>
<path d="M136.352 63.9412C136.323 63.9805 136.309 64.0299 136.315 64.0789C136.321 64.1279 136.346 64.1727 136.384 64.2037C136.418 64.2298 136.459 64.2442 136.502 64.2445C136.538 64.2435 136.573 64.2308 136.601 64.2083C136.619 64.2003 136.635 64.1879 136.647 64.1721C136.791 63.981 136.978 63.8258 137.192 63.7183C137.406 63.6108 137.643 63.5539 137.882 63.552C137.932 63.5545 137.981 63.5374 138.018 63.5044C138.055 63.4714 138.078 63.4251 138.081 63.3755C138.083 63.3511 138.08 63.3266 138.073 63.3033C138.065 63.2801 138.053 63.2586 138.037 63.2401C138.021 63.2216 138.001 63.2065 137.979 63.1955C137.958 63.1845 137.934 63.178 137.909 63.1763C137.594 63.1744 137.283 63.2505 137.004 63.3981C136.752 63.5323 136.53 63.7172 136.352 63.9412Z" fill="#263238"/>
<path d="M141.249 69.3632C141.232 69.3463 141.208 69.3369 141.184 69.3369C141.159 69.3369 141.136 69.3463 141.118 69.3632C140.808 69.6227 140.444 69.8081 140.051 69.9054C139.659 70.0026 139.25 70.0091 138.855 69.9245C138.831 69.9204 138.806 69.9256 138.786 69.9391C138.766 69.9525 138.752 69.9732 138.746 69.9969C138.742 70.0214 138.747 70.0466 138.761 70.0675C138.774 70.0885 138.795 70.1036 138.819 70.11C139.035 70.1529 139.255 70.1726 139.475 70.1689C140.123 70.1628 140.748 69.9252 141.236 69.499C141.246 69.4911 141.254 69.4813 141.26 69.4701C141.266 69.4589 141.27 69.4466 141.271 69.434C141.273 69.4213 141.271 69.4085 141.267 69.3964C141.264 69.3842 141.258 69.3729 141.249 69.3632Z" fill="#263238"/>
<path d="M138.819 66.1304C138.22 67.0076 137.506 67.8007 136.696 68.4885C137.149 69.1131 138.126 69.0679 138.126 69.0679L138.819 66.1304Z" fill="#630F0F"/>
<path d="M137.217 66.2392C137.42 66.28 137.669 66.0627 137.719 65.7504C137.769 65.4381 137.687 65.1575 137.484 65.1167C137.28 65.076 137.054 65.2932 136.981 65.6056C136.909 65.9179 137.008 66.1985 137.217 66.2392Z" fill="#263238"/>
<path d="M140.756 66.9643C140.96 67.0051 141.181 66.7878 141.258 66.4755C141.335 66.1632 141.222 65.8826 141.019 65.8418C140.815 65.8011 140.589 66.0183 140.516 66.3307C140.444 66.643 140.548 66.9055 140.756 66.9643Z" fill="#263238"/>
<path d="M145.386 62.8877C145.264 62.8877 145.124 62.8877 144.974 62.8877C144.716 63.5182 144.535 64.1779 144.436 64.8521C144.311 65.5627 144.335 66.2915 144.505 66.9926C144.676 67.6937 144.99 68.3518 145.427 68.9257C146.332 70.5008 147.541 70.4555 148.573 69.2561C150.229 67.6629 151.827 64.49 148.527 62.0142C148.011 62.4713 147.038 62.7927 145.386 62.8877Z" fill="#263238"/>
<path d="M147.694 68.354C146.943 68.0462 146.097 68.4083 145.431 68.956C145.066 69.2464 144.75 69.5932 144.494 69.9835C143.856 70.9837 144.083 72.147 145.228 72.2466H145.427H145.698C146.6 72.1547 147.442 71.7551 148.084 71.115C148.321 70.8857 148.493 70.5964 148.58 70.2777C148.666 69.959 148.666 69.6228 148.577 69.3045C148.512 69.0892 148.399 68.8915 148.246 68.7267C148.093 68.562 147.904 68.4345 147.694 68.354Z" fill="#7F3E3B"/>
<path d="M138.674 61.2606C140.331 62.5053 143.345 62.8901 144.975 62.8901C145.124 62.8901 145.264 62.8901 145.386 62.8901C147.039 62.795 148.012 62.4737 148.528 62.0301C150.442 60.3916 146.079 57.0513 146.079 57.0513C146.079 57.0513 146.568 58.2462 145.554 58.5766C144.54 58.907 137.407 56.2456 137.511 59.2646C137.53 59.69 137.667 60.1019 137.905 60.455C138.116 60.7635 138.376 61.0357 138.674 61.2606Z" fill="#263238"/>
<path d="M130.988 115.308C130.988 115.308 130.866 116.367 130.676 118.146C137.608 120.49 145.106 120.56 152.08 118.345C152.126 116.195 152.157 114.91 152.157 114.91L138.715 115.163H138.452L130.988 115.308Z" fill="#263238"/>
<path d="M165.976 97.0783C165.938 96.6928 165.849 96.314 165.714 95.9512C165.649 95.7712 165.572 95.5957 165.483 95.4262L165.351 95.1818L165.279 95.0551C164.632 93.9416 163.921 92.887 163.197 91.8867L159.087 95.8471C159.63 96.5261 160.16 97.205 160.649 97.902C160.558 98.1334 160.441 98.3536 160.3 98.5583C159.642 99.4723 158.883 100.309 158.037 101.052C156.265 102.649 154.408 104.149 152.474 105.547L151.845 105.628L149.32 105.972L146.835 107.651L148.469 110.974L150.524 109.924C151.014 109.856 151.498 109.742 151.967 109.584C152.694 109.395 153.326 108.948 153.746 108.326C154.948 107.85 156.125 107.312 157.272 106.715C158.505 106.078 159.699 105.37 160.848 104.592C161.43 104.193 162.007 103.757 162.577 103.284C163.183 102.787 163.743 102.237 164.252 101.641C164.903 100.904 165.404 100.048 165.727 99.1196C165.955 98.4647 166.04 97.7687 165.976 97.0783ZM160.685 97.7934C160.685 97.7708 160.685 97.7436 160.685 97.7255C160.685 97.6169 160.726 97.5762 160.726 97.6395C160.724 97.6922 160.713 97.7442 160.694 97.7934H160.685Z" fill="#7F3E3B"/>
<path d="M121.205 110.462C122.304 103.689 117.705 97.307 110.932 96.2075C104.159 95.1081 97.7767 99.7075 96.6772 106.481C95.5778 113.254 100.177 119.636 106.95 120.735C113.724 121.835 120.106 117.235 121.205 110.462Z" fill="#263238"/>
<path d="M115.762 107.302H110.095V101.635C110.095 101.327 109.973 101.031 109.755 100.813C109.536 100.595 109.241 100.472 108.932 100.472C108.623 100.472 108.328 100.595 108.109 100.813C107.891 101.031 107.769 101.327 107.769 101.635V107.302H102.102C101.793 107.302 101.498 107.425 101.279 107.643C101.061 107.861 100.939 108.157 100.939 108.465C100.939 108.774 101.061 109.07 101.279 109.288C101.498 109.506 101.793 109.629 102.102 109.629H107.769V115.295C107.769 115.448 107.799 115.599 107.857 115.741C107.916 115.882 108.001 116.01 108.109 116.118C108.217 116.226 108.346 116.312 108.487 116.37C108.628 116.429 108.779 116.459 108.932 116.459C109.085 116.459 109.236 116.429 109.377 116.37C109.518 116.312 109.647 116.226 109.755 116.118C109.863 116.01 109.948 115.882 110.007 115.741C110.065 115.599 110.095 115.448 110.095 115.295V109.629H115.762C116.071 109.629 116.366 109.506 116.585 109.288C116.803 109.07 116.925 108.774 116.925 108.465C116.925 108.157 116.803 107.861 116.585 107.643C116.366 107.425 116.071 107.302 115.762 107.302Z" fill="white"/>
<path d="M141.431 64.5935C141.658 64.6396 141.871 64.7403 142.051 64.887C142.23 65.0336 142.372 65.2218 142.463 65.4353C142.478 65.4679 142.502 65.4954 142.533 65.5146C142.563 65.5338 142.599 65.544 142.635 65.544C142.66 65.5503 142.686 65.5503 142.712 65.544C142.734 65.5338 142.754 65.5192 142.771 65.5011C142.788 65.4829 142.801 65.4617 142.809 65.4385C142.818 65.4153 142.821 65.3907 142.82 65.3661C142.819 65.3414 142.813 65.3173 142.802 65.295C142.684 65.025 142.502 64.7878 142.272 64.604C142.042 64.4202 141.77 64.2954 141.48 64.2404C141.431 64.2338 141.381 64.247 141.342 64.2772C141.302 64.3073 141.277 64.3519 141.27 64.4011C141.263 64.4503 141.277 64.5002 141.307 64.5396C141.337 64.5791 141.381 64.605 141.431 64.6116V64.5935Z" fill="#263238"/>
</svg>
