<svg width="18" height="18" viewBox="0 0 18 18" fill="none" xmlns="http://www.w3.org/2000/svg">
<path d="M1.44024 17C1.33497 17 1.20339 16.9474 1.12445 16.8684C1.01918 16.7632 0.966551 16.5789 1.01918 16.4211L2.30866 12.5789C2.36129 12.4211 2.44024 12.2632 2.57181 12.1579L13.4139 1.31579C13.835 0.894737 14.5192 0.894737 14.9402 1.31579L16.6771 3.05263C17.0981 3.47368 17.0981 4.15789 16.6771 4.57895L5.86129 15.4474C5.75602 15.5526 5.59813 15.6579 5.44024 15.7105L1.59813 17C1.5455 17 1.49287 17 1.44024 17ZM14.2034 1.52632C14.0718 1.52632 13.9139 1.57895 13.8087 1.68421L2.96655 12.5526C2.91392 12.6053 2.86129 12.6842 2.83497 12.7632L1.59813 16.4211L5.25602 15.1842C5.33497 15.1579 5.41392 15.1053 5.46655 15.0526L16.3087 4.21053C16.5192 4 16.5192 3.63158 16.3087 3.42105L14.5718 1.68421C14.4929 1.57895 14.335 1.52632 14.2034 1.52632Z" fill="#6A4EEE" stroke="#6A4EEE" stroke-width="0.3"/>
<path d="M14.072 7.10465C13.993 7.10465 13.9404 7.07833 13.8877 7.0257L10.993 4.13096C10.8877 4.0257 10.8877 3.8678 10.993 3.76254C11.0983 3.65728 11.2562 3.65728 11.3614 3.76254L14.2562 6.65728C14.3614 6.76254 14.3614 6.92044 14.2562 7.0257C14.2035 7.07833 14.1246 7.10465 14.072 7.10465Z" fill="#6A4EEE" stroke="#6A4EEE" stroke-width="0.3"/>
<path d="M15.1244 6.04996C15.0455 6.04996 14.9929 6.02364 14.9402 5.97101L12.0455 3.07627C11.9402 2.97101 11.9402 2.81312 12.0455 2.70785C12.1508 2.60259 12.3087 2.60259 12.4139 2.70785L15.3087 5.60259C15.4139 5.70785 15.4139 5.86575 15.3087 5.97101C15.256 6.02364 15.1771 6.04996 15.1244 6.04996Z" fill="#6A4EEE" stroke="#6A4EEE" stroke-width="0.3"/>
<path d="M5.65106 15.5265C5.57211 15.5265 5.51948 15.5002 5.46685 15.4476L2.57211 12.5528C2.46685 12.4476 2.46685 12.2897 2.57211 12.1844C2.67737 12.0792 2.83527 12.0792 2.94053 12.1844L5.83527 15.0792C5.94053 15.1844 5.94053 15.3423 5.83527 15.4476C5.78264 15.5002 5.70369 15.5265 5.65106 15.5265Z" fill="#6A4EEE" stroke="#6A4EEE" stroke-width="0.3"/>
</svg>
