<svg width="14" height="14" viewBox="0 0 14 14" fill="none" xmlns="http://www.w3.org/2000/svg">
<path d="M1.32981 13C1.25086 13 1.15218 12.9605 1.09297 12.9013C1.01402 12.8224 0.974547 12.6842 1.01402 12.5658L1.98113 9.68421C2.0206 9.56579 2.07981 9.44737 2.17849 9.36842L10.3101 1.23684C10.6259 0.921053 11.139 0.921053 11.4548 1.23684L12.7574 2.53947C13.0732 2.85526 13.0732 3.36842 12.7574 3.68421L4.6456 11.8355C4.56665 11.9145 4.44823 11.9934 4.32981 12.0329L1.44823 13C1.40876 13 1.36928 13 1.32981 13ZM10.9022 1.39474C10.8035 1.39474 10.6851 1.43421 10.6061 1.51316L2.47455 9.66447C2.43507 9.70395 2.3956 9.76316 2.37586 9.82237L1.44823 12.5658L4.19165 11.6382C4.25086 11.6184 4.31007 11.5789 4.34955 11.5395L12.4811 3.40789C12.639 3.25 12.639 2.97368 12.4811 2.81579L11.1785 1.51316C11.1193 1.43421 11.0009 1.39474 10.9022 1.39474Z" fill="#6A4EEE" stroke="#6A4EEE" stroke-width="0.3"/>
<path d="M10.8025 5.58141C10.7433 5.58141 10.7038 5.56168 10.6643 5.5222L8.49329 3.35115C8.41435 3.2722 8.41435 3.15378 8.49329 3.07484C8.57224 2.99589 8.69066 2.99589 8.76961 3.07484L10.9407 5.24589C11.0196 5.32484 11.0196 5.44326 10.9407 5.5222C10.9012 5.56168 10.842 5.58141 10.8025 5.58141Z" fill="#6A4EEE" stroke="#6A4EEE" stroke-width="0.3"/>
<path d="M11.5935 4.78454C11.5343 4.78454 11.4948 4.7648 11.4554 4.72533L9.28431 2.55428C9.20536 2.47533 9.20536 2.35691 9.28431 2.27796C9.36326 2.19901 9.48168 2.19901 9.56062 2.27796L11.7317 4.44901C11.8106 4.52796 11.8106 4.64638 11.7317 4.72533C11.6922 4.7648 11.633 4.78454 11.5935 4.78454Z" fill="#6A4EEE" stroke="#6A4EEE" stroke-width="0.3"/>
<path d="M4.4861 11.8627C4.42689 11.8627 4.38741 11.8429 4.34794 11.8035L2.17689 9.6324C2.09794 9.55345 2.09794 9.43503 2.17689 9.35609C2.25583 9.27714 2.37425 9.27714 2.4532 9.35609L4.62425 11.5271C4.7032 11.6061 4.7032 11.7245 4.62425 11.8035C4.58478 11.8429 4.52557 11.8627 4.4861 11.8627Z" fill="#6A4EEE" stroke="#6A4EEE" stroke-width="0.3"/>
</svg>
