<svg width="22" height="22" viewBox="0 0 22 22" fill="none" xmlns="http://www.w3.org/2000/svg">
<path d="M20.375 12.25C20.0569 12.25 19.75 12.5238 19.75 12.875V19.75H2.25V2.25H9.125C9.45687 2.25 9.75 1.95688 9.75 1.625C9.75 1.29312 9.4375 1 9.125 1H2.25C1.55937 1 1 1.55937 1 2.25V19.75C1 20.4406 1.55937 21 2.25 21H19.75C20.4406 21 21 20.4406 21 19.75V12.8656C21 12.5194 20.7463 12.25 20.375 12.25Z" fill="#6A4EEE" stroke="#6A4EEE" stroke-width="0.2" stroke-linejoin="round"/>
<path d="M20.3753 1H14.1253C13.7803 1 13.5003 1.28 13.5003 1.625C13.5003 1.97 13.7803 2.25 14.1253 2.25H18.8728L9.3015 11.8206C9.059 12.0631 9.059 12.4562 9.3015 12.6987C9.544 12.9412 9.93713 12.9412 10.179 12.6987L19.7503 3.1275V7.875C19.7503 8.22 20.0303 8.5 20.3753 8.5C20.7203 8.5 21.0003 8.22 21.0003 7.875V1.625C21.0003 1.28875 20.7115 1 20.3753 1Z" fill="#6A4EEE" stroke="#6A4EEE" stroke-width="0.2" stroke-linejoin="round"/>
</svg>
