<svg width="15" height="18" viewBox="0 0 15 18" fill="none" xmlns="http://www.w3.org/2000/svg">
<path fill-rule="evenodd" clip-rule="evenodd" d="M4.97634 1.03731C6.43551 1.38882 7.16509 1.38882 8.62425 1.03731C8.80529 0.993695 9.19156 0.993695 9.78304 1.03731C10.0437 1.03731 10.2551 1.23697 10.2551 1.48327C10.2551 1.55331 10.2376 1.62236 10.2041 1.68484L8.60863 4.65999C11.2511 6.6296 12.5635 9.16438 12.5457 12.2643C12.5373 13.7295 11.9043 17.4942 6.77295 17.4942C1.6416 17.4942 0.98756 14.4244 1.00018 12.2643C1.01795 9.22107 2.32633 6.692 4.92533 4.6771L3.34079 1.68271C3.22421 1.46242 3.31872 1.19454 3.55188 1.08439C3.61742 1.05343 3.68969 1.03731 3.76296 1.03731C4.36539 0.987564 4.76985 0.987564 4.97634 1.03731Z" stroke="#6A4EEE" stroke-width="0.8"/>
<path d="M6.40658 4.8488C6.40658 4.59576 6.20145 4.39062 5.94841 4.39062C5.69536 4.39062 5.49023 4.59576 5.49023 4.8488V6.40658C5.49023 6.65962 5.69536 6.86475 5.94841 6.86475C6.20145 6.86475 6.40658 6.65962 6.40658 6.40658V4.8488Z" fill="#6A4EEE"/>
<path d="M9.21981 4.11328H4.3632C4.11016 4.11328 3.90503 4.31841 3.90503 4.57145C3.90503 4.82449 4.11016 5.02962 4.3632 5.02962H9.21981C9.47285 5.02962 9.67798 4.82449 9.67798 4.57145C9.67798 4.31841 9.47285 4.11328 9.21981 4.11328Z" fill="#6A4EEE"/>
<path d="M13.1598 15.293H10.3191C9.71179 15.293 9.21948 15.7853 9.21948 16.3926C9.21948 16.9999 9.71179 17.4922 10.3191 17.4922H13.1598C13.767 17.4922 14.2594 16.9999 14.2594 16.3926C14.2594 15.7853 13.767 15.293 13.1598 15.293Z" fill="#B9AAFD" stroke="#6A4EEE" stroke-width="0.8"/>
<path d="M11.9959 13.0938H9.15527C8.54798 13.0938 8.05566 13.5861 8.05566 14.1934C8.05566 14.8007 8.54798 15.293 9.15527 15.293H11.9959C12.6032 15.293 13.0955 14.8007 13.0955 14.1934C13.0955 13.5861 12.6032 13.0938 11.9959 13.0938Z" fill="#B9AAFD" stroke="#6A4EEE" stroke-width="0.8"/>
<path d="M13.1876 10.8906H10.3469C9.73963 10.8906 9.24731 11.3829 9.24731 11.9902C9.24731 12.5975 9.73963 13.0898 10.3469 13.0898H13.1876C13.7949 13.0898 14.2872 12.5975 14.2872 11.9902C14.2872 11.3829 13.7949 10.8906 13.1876 10.8906Z" fill="#B9AAFD" stroke="#6A4EEE" stroke-width="0.8"/>
</svg>
