<svg width="23" height="20" viewBox="0 0 23 20" fill="none" xmlns="http://www.w3.org/2000/svg">
<path d="M8.56878 3.55163L22.1588 3.56593C22.5537 3.56593 22.8741 3.24549 22.8741 2.85067C22.8741 2.45584 22.5537 2.1354 22.1588 2.1354L8.56878 2.12109C8.17395 2.12109 7.85352 2.44153 7.85352 2.83636C7.85352 3.23119 8.17395 3.55163 8.56878 3.55163Z" fill="#121212"/>
<path d="M22.1735 9.28384L8.58343 9.26953C8.1886 9.26953 7.86816 9.58997 7.86816 9.9848C7.86816 10.3796 8.1886 10.7001 8.58343 10.7001L22.1735 10.7144C22.5683 10.7144 22.8888 10.3939 22.8888 9.9991C22.8888 9.60428 22.5683 9.28384 22.1735 9.28384Z" fill="#121212"/>
<path d="M22.1735 16.4362L8.58343 16.4219C8.1886 16.4219 7.86816 16.7423 7.86816 17.1371C7.86816 17.532 8.1886 17.8524 8.58343 17.8524L22.1735 17.8667C22.5683 17.8667 22.8888 17.5463 22.8888 17.1514C22.8888 16.7566 22.5683 16.4362 22.1735 16.4362Z" fill="#121212"/>
<path d="M2.85391 0C1.27747 0 0 1.27747 0 2.85391C0 4.43036 1.27747 5.70782 2.85391 5.70782C4.43036 5.70782 5.70782 4.43036 5.70782 2.85391C5.70782 1.27747 4.43036 0 2.85391 0ZM2.84676 4.28444C2.0428 4.28444 1.39835 3.65787 1.39835 2.85391C1.39835 2.04995 2.0428 1.42338 2.84676 1.42338C3.65072 1.42338 4.27729 2.04995 4.27729 2.85391C4.27729 3.65787 3.65072 4.28444 2.84676 4.28444Z" fill="#121212"/>
<path d="M2.85391 7.15625C1.27747 7.15625 0 8.43371 0 10.0102C0 11.5866 1.27747 12.8641 2.85391 12.8641C4.43036 12.8641 5.70782 11.5866 5.70782 10.0102C5.70782 8.43371 4.43036 7.15625 2.85391 7.15625ZM2.84676 11.4407C2.0428 11.4407 1.39835 10.8141 1.39835 10.0102C1.39835 9.2062 2.0428 8.57963 2.84676 8.57963C3.65072 8.57963 4.27729 9.2062 4.27729 10.0102C4.27729 10.8141 3.65072 11.4407 2.84676 11.4407Z" fill="#121212"/>
<path d="M2.85391 14.293C1.27747 14.293 0 15.5704 0 17.1469C0 18.7233 1.27747 20.0008 2.85391 20.0008C4.43036 20.0008 5.70782 18.7233 5.70782 17.1469C5.70782 15.5704 4.43036 14.293 2.85391 14.293ZM2.84676 18.5774C2.0428 18.5774 1.39835 17.9508 1.39835 17.1469C1.39835 16.3429 2.0428 15.7163 2.84676 15.7163C3.65072 15.7163 4.27729 16.3429 4.27729 17.1469C4.27729 17.9508 3.65072 18.5774 2.84676 18.5774Z" fill="#121212"/>
</svg>
