<svg width="17" height="22" viewBox="0 0 17 22" fill="none" xmlns="http://www.w3.org/2000/svg">
<path d="M14.352 17.9948H2.72663C1.83995 17.9948 1.10104 17.5514 0.657702 16.8125C0.21436 16.0736 0.21436 15.1869 0.657702 14.3988C0.657702 14.3495 0.706962 14.3003 0.756222 14.3003L2.77589 12.3791C2.77589 11.8865 2.72663 10.655 2.72663 9.02942C2.72663 6.22158 4.30296 3.95561 5.78077 3.56153C5.97781 2.52707 6.76597 1 8.53934 1C10.3127 1 11.0516 2.52707 11.2979 3.56153C12.825 3.90635 14.352 5.92602 14.352 9.02942C14.352 10.655 14.3028 11.8865 14.3028 12.3791L16.3225 14.3003C16.3717 14.3495 16.3717 14.3988 16.421 14.3988C16.8643 15.1377 16.8151 16.0736 16.421 16.8125C15.9776 17.5514 15.1895 17.9948 14.352 17.9948ZM1.44587 14.9406C1.24882 15.384 1.24882 15.8766 1.49513 16.3199C1.74143 16.7633 2.23403 17.0096 2.72663 17.0096H14.352C14.8446 17.0096 15.3372 16.7633 15.5836 16.3199C15.8299 15.8766 15.8299 15.384 15.6328 14.9406L13.4654 12.921C13.3668 12.8225 13.3176 12.6747 13.3176 12.5269C13.3176 12.5269 13.3668 11.0491 13.3668 8.98016C13.3668 6.0738 11.889 4.44822 10.8546 4.44822C10.6083 4.44822 10.4112 4.25118 10.362 4.00487C10.362 3.90635 10.1157 1.93594 8.53934 1.93594C6.91375 1.93594 6.66745 3.90635 6.66745 4.00487C6.66745 4.25118 6.42115 4.44822 6.17485 4.44822C5.43595 4.44822 3.66258 6.17232 3.66258 8.98016C3.66258 11.0491 3.71184 12.4776 3.71184 12.5269C3.71184 12.6747 3.66258 12.8225 3.56406 12.921L1.44587 14.9406Z" fill="#6A4EEE" stroke="#6A4EEE" stroke-width="0.3" stroke-linejoin="round"/>
<path d="M8.68697 20.9994C6.9136 20.9994 5.53432 19.5216 5.48506 19.4723C5.28801 19.2753 5.33727 18.9797 5.53432 18.7827C5.73136 18.5856 6.02692 18.6349 6.22396 18.8319C6.22396 18.8319 7.35694 20.0142 8.68697 20.0142H8.73623C9.47513 20.0142 10.214 19.6201 10.8544 18.8319C11.0515 18.6349 11.347 18.5856 11.5441 18.7827C11.7411 18.9797 11.7904 19.2753 11.5933 19.4723C10.7559 20.4575 9.7707 20.9994 8.73623 20.9994C8.68697 20.9994 8.68697 20.9994 8.68697 20.9994Z" fill="#6A4EEE" stroke="#6A4EEE" stroke-width="0.3" stroke-linejoin="round"/>
</svg>
