<svg width="13" height="9" viewBox="0 0 13 9" fill="none" xmlns="http://www.w3.org/2000/svg">
<path d="M12.853 3.64735C12.946 3.74293 12.998 3.87101 12.998 4.00435C12.998 4.13769 12.946 4.26577 12.853 4.36135L9.40299 7.86135C9.30923 7.95508 9.18208 8.00774 9.04949 8.00774C8.91691 8.00774 8.78976 7.95508 8.69599 7.86135C8.60207 7.76626 8.5494 7.638 8.5494 7.50435C8.5494 7.3707 8.60207 7.24243 8.69599 7.14735L11.298 4.50935L1.49799 4.50935C1.36406 4.50935 1.23561 4.45614 1.14091 4.36143C1.0462 4.26673 0.992994 4.13828 0.992994 4.00435C0.992994 3.87041 1.0462 3.74196 1.14091 3.64726C1.23561 3.55255 1.36406 3.49935 1.49799 3.49935L11.298 3.49935L8.69799 0.862346C8.60407 0.767263 8.5514 0.638997 8.5514 0.505346C8.5514 0.371696 8.60407 0.243429 8.69799 0.148346C8.79176 0.0546108 8.91891 0.00195313 9.05149 0.00195313C9.18408 0.00195313 9.31123 0.0546108 9.40499 0.148346L12.853 3.64735Z" fill="#121212"/>
</svg>
