<svg width="4" height="15" viewBox="0 0 4 15" fill="none" xmlns="http://www.w3.org/2000/svg">
<path d="M0.799805 1.5C0.799805 2.32843 1.47138 3 2.2998 3C3.12823 3 3.7998 2.32843 3.7998 1.5C3.7998 0.671573 3.12823 0 2.2998 0C1.47138 0 0.799805 0.671573 0.799805 1.5Z" fill="#A5A7A4"/>
<path d="M0.799805 7.25977C0.799805 8.08819 1.47138 8.75977 2.2998 8.75977C3.12823 8.75977 3.7998 8.08819 3.7998 7.25977C3.7998 6.43134 3.12823 5.75977 2.2998 5.75977C1.47138 5.75977 0.799805 6.43134 0.799805 7.25977Z" fill="#A5A7A4"/>
<path d="M0.799805 13.02C0.799805 13.8484 1.47138 14.52 2.2998 14.52C3.12823 14.52 3.7998 13.8484 3.7998 13.02C3.7998 12.1916 3.12823 11.52 2.2998 11.52C1.47138 11.52 0.799805 12.1916 0.799805 13.02Z" fill="#A5A7A4"/>
</svg>
