<svg xmlns="http://www.w3.org/2000/svg" width="24.438" height="30.7" viewBox="0 0 24.438 30.7">
  <g id="Equity_Summary" data-name="Equity Summary" transform="translate(-4044.23 -17906.65)">
    <path id="Path_280" data-name="Path 280" d="M19.373,6.5a3.793,3.793,0,0,0-3.793,3.793V32.707A3.793,3.793,0,0,0,19.373,36.5h12.9a.488.488,0,0,0,.238-.1l6.7-6.283a.345.345,0,0,0,.107-.252h0V10.293A3.793,3.793,0,0,0,35.525,6.5ZM32.621,35.359V31.241a1.034,1.034,0,0,1,1.034-1.034H38.1Zm6.007-25.066V29.517H33.656a1.724,1.724,0,0,0-1.724,1.724V35.81H19.373a3.1,3.1,0,0,1-3.1-3.1V10.293a3.1,3.1,0,0,1,3.1-3.1H35.525A3.1,3.1,0,0,1,38.628,10.293Z" transform="translate(4029 17900.5)" fill="#6a4eee" stroke="#6a4eee" stroke-width="0.7"/>
    <path id="Path_281" data-name="Path 281" d="M28,25.339h.345a1.84,1.84,0,0,0,0-3.679H28a1.84,1.84,0,0,0,0,3.679Zm0-2.99h.345a1.15,1.15,0,0,1,0,2.3H28a1.15,1.15,0,0,1,0-2.3Z" transform="translate(4022.065 17890.568)" fill="#6a4eee" stroke="#6a4eee" stroke-width="0.7"/>
    <path id="Path_282" data-name="Path 282" d="M53.212,21.67H47a1.84,1.84,0,0,0,0,3.679h6.207a1.84,1.84,0,1,0,0-3.679Zm0,2.99H47a1.15,1.15,0,0,1,0-2.3h6.207a1.15,1.15,0,0,1,0,2.3Z" transform="translate(4009.617 17890.561)" fill="#6a4eee" stroke="#6a4eee" stroke-width="0.7"/>
    <path id="Path_283" data-name="Path 283" d="M28,47.339h.345a1.84,1.84,0,0,0,0-3.679H28a1.84,1.84,0,1,0,0,3.679Zm0-2.99h.345a1.15,1.15,0,0,1,0,2.3H28a1.15,1.15,0,0,1,0-2.3Z" transform="translate(4022.065 17876.154)" fill="#6a4eee" stroke="#6a4eee" stroke-width="0.7"/>
    <path id="Path_284" data-name="Path 284" d="M53.212,43.67H47a1.84,1.84,0,0,0,0,3.679h6.207a1.84,1.84,0,1,0,0-3.679Zm0,2.99H47a1.15,1.15,0,0,1,0-2.3h6.207a1.15,1.15,0,0,1,0,2.3Z" transform="translate(4009.617 17876.146)" fill="#6a4eee" stroke="#6a4eee" stroke-width="0.7"/>
    <path id="Path_285" data-name="Path 285" d="M26.515,68.02h3.334a.345.345,0,0,0,0-.69H26.515a.345.345,0,1,0,0,.69Z" transform="translate(4022.062 17860.646)" fill="#6a4eee" stroke="#6a4eee" stroke-width="0.7"/>
    <path id="Path_286" data-name="Path 286" d="M34.673,78.33H26.515a.345.345,0,1,0,0,.69h8.159a.345.345,0,1,0,0-.69Z" transform="translate(4022.062 17853.439)" fill="#6a4eee" stroke="#6a4eee" stroke-width="0.7"/>
  </g>
</svg>
