<svg width="40" height="40" viewBox="0 0 40 40" fill="none" xmlns="http://www.w3.org/2000/svg">
<circle cx="20" cy="20" r="20" fill="#EFECFF"/>
<path d="M14.6972 9.3335C13.9819 9.3335 13.2958 9.61767 12.79 10.1235C12.2842 10.6293 12 11.3154 12 12.0307V27.9696C12 28.6849 12.2842 29.371 12.79 29.8768C13.2958 30.3827 13.9819 30.6668 14.6972 30.6668H23.8706C23.9324 30.6587 23.9908 30.6342 24.0398 30.5957L28.8043 26.1278C28.8285 26.1047 28.8478 26.0769 28.8608 26.0461C28.8739 26.0153 28.8806 25.9821 28.8804 25.9486V12.0307C28.8804 11.6765 28.8106 11.3258 28.675 10.9986C28.5395 10.6713 28.3408 10.374 28.0903 10.1235C27.8399 9.87304 27.5425 9.67436 27.2153 9.53881C26.8881 9.40326 26.5373 9.3335 26.1831 9.3335H14.6972ZM24.118 29.8555V26.9271C24.118 26.7321 24.1955 26.5451 24.3334 26.4072C24.4713 26.2693 24.6583 26.1918 24.8533 26.1918H28.0142L24.118 29.8555ZM28.3897 12.0307V25.7011H24.854C24.5289 25.7011 24.2171 25.8303 23.9872 26.0602C23.7572 26.2901 23.6281 26.602 23.6281 26.9271V30.1762H14.6972C14.1126 30.1762 13.5519 29.9439 13.1385 29.5305C12.7251 29.1171 12.4928 28.5564 12.4928 27.9717V12.0307C12.4928 11.4461 12.7251 10.8854 13.1385 10.472C13.5519 10.0585 14.1126 9.8263 14.6972 9.8263H26.1831C26.4728 9.82602 26.7597 9.88283 27.0274 9.99349C27.2951 10.1041 27.5383 10.2665 27.7433 10.4712C27.9482 10.6759 28.1108 10.919 28.2217 11.1866C28.3326 11.4542 28.3897 11.7411 28.3897 12.0307Z" fill="#6A4EEE" stroke="#6A4EEE" stroke-width="0.5"/>
<path d="M15.9005 15.6157H16.1458C16.4875 15.6077 16.8125 15.4664 17.0513 15.222C17.2901 14.9775 17.4238 14.6493 17.4238 14.3076C17.4238 13.9659 17.2901 13.6377 17.0513 13.3932C16.8125 13.1488 16.4875 13.0075 16.1458 12.9995H15.9005C15.5589 13.0075 15.2339 13.1488 14.9951 13.3932C14.7563 13.6377 14.6226 13.9659 14.6226 14.3076C14.6226 14.6493 14.7563 14.9775 14.9951 15.222C15.2339 15.4664 15.5589 15.6077 15.9005 15.6157Z" fill="#B9AAFD" stroke="#6A4EEE" stroke-width="0.8"/>
<path d="M24.9771 13.0038H20.5597C20.218 13.0117 19.8931 13.1531 19.6543 13.3975C19.4154 13.6419 19.2817 13.9701 19.2817 14.3119C19.2817 14.6536 19.4154 14.9818 19.6543 15.2262C19.8931 15.4707 20.218 15.612 20.5597 15.62H24.9735C25.1479 15.624 25.3213 15.5932 25.4836 15.5293C25.6458 15.4654 25.7937 15.3697 25.9184 15.2478C26.0432 15.1259 26.1423 14.9803 26.21 14.8196C26.2776 14.6589 26.3125 14.4863 26.3125 14.3119C26.3125 14.1375 26.2776 13.9648 26.21 13.8041C26.1423 13.6434 26.0432 13.4978 25.9184 13.3759C25.7937 13.2541 25.6458 13.1584 25.4836 13.0944C25.3213 13.0305 25.1479 12.9997 24.9735 13.0038H24.9771Z" fill="#B9AAFD" stroke="#6A4EEE" stroke-width="0.8"/>
<path d="M15.9001 21.0614H16.1454C16.4871 21.0534 16.8121 20.9121 17.0509 20.6676C17.2897 20.4232 17.4234 20.095 17.4234 19.7533C17.4234 19.4115 17.2897 19.0834 17.0509 18.8389C16.8121 18.5945 16.4871 18.4531 16.1454 18.4452H15.9001C15.7258 18.4411 15.5524 18.4719 15.3901 18.5359C15.2278 18.5998 15.08 18.6955 14.9552 18.8173C14.8305 18.9392 14.7314 19.0848 14.6637 19.2455C14.596 19.4062 14.5612 19.5789 14.5612 19.7533C14.5612 19.9277 14.596 20.1003 14.6637 20.261C14.7314 20.4218 14.8305 20.5673 14.9552 20.6892C15.08 20.8111 15.2278 20.9068 15.3901 20.9707C15.5524 21.0346 15.7258 21.0654 15.9001 21.0614Z" fill="#B9AAFD" stroke="#6A4EEE" stroke-width="0.8"/>
<path d="M24.9772 18.4476H20.5598C20.2182 18.4556 19.8932 18.5969 19.6544 18.8413C19.4156 19.0858 19.2819 19.414 19.2819 19.7557C19.2819 20.0974 19.4156 20.4256 19.6544 20.6701C19.8932 20.9145 20.2182 21.0558 20.5598 21.0638H24.9737C25.148 21.0679 25.3214 21.037 25.4837 20.9731C25.6459 20.9092 25.7938 20.8135 25.9185 20.6916C26.0433 20.5698 26.1424 20.4242 26.2101 20.2635C26.2778 20.1027 26.3126 19.9301 26.3126 19.7557C26.3126 19.5813 26.2778 19.4087 26.2101 19.248C26.1424 19.0872 26.0433 18.9417 25.9185 18.8198C25.7938 18.6979 25.6459 18.6022 25.4837 18.5383C25.3214 18.4744 25.148 18.4436 24.9737 18.4476H24.9772Z" fill="#B9AAFD" stroke="#6A4EEE" stroke-width="0.8"/>
<path d="M14.8424 24.7402H17.2132C17.2783 24.7402 17.3407 24.7143 17.3867 24.6683C17.4327 24.6223 17.4586 24.5599 17.4586 24.4948C17.4586 24.4298 17.4327 24.3674 17.3867 24.3214C17.3407 24.2754 17.2783 24.2495 17.2132 24.2495H14.8424C14.7773 24.2495 14.7149 24.2754 14.6689 24.3214C14.6229 24.3674 14.597 24.4298 14.597 24.4948C14.597 24.5599 14.6229 24.6223 14.6689 24.6683C14.7149 24.7143 14.7773 24.7402 14.8424 24.7402Z" fill="#6A4EEE" stroke="#6A4EEE" stroke-width="0.3"/>
<path d="M20.6436 26.9473H14.8424C14.7773 26.9473 14.7149 26.9731 14.6689 27.0191C14.6229 27.0651 14.597 27.1275 14.597 27.1926C14.597 27.2577 14.6229 27.3201 14.6689 27.3661C14.7149 27.4121 14.7773 27.4379 14.8424 27.4379H20.6443C20.7094 27.4379 20.7718 27.4121 20.8178 27.3661C20.8638 27.3201 20.8897 27.2577 20.8897 27.1926C20.8897 27.1275 20.8638 27.0651 20.8178 27.0191C20.7718 26.9731 20.7094 26.9473 20.6443 26.9473H20.6436Z" fill="#6A4EEE" stroke="#6A4EEE" stroke-width="0.3"/>
</svg>
