<svg width="20" height="20" viewBox="0 0 20 20" fill="none" xmlns="http://www.w3.org/2000/svg">
<path d="M10 0C8.02219 0 6.08879 0.58649 4.4443 1.6853C2.79981 2.78412 1.51809 4.3459 0.761209 6.17316C0.00433286 8.00043 -0.1937 10.0111 0.192152 11.9509C0.578004 13.8907 1.53041 15.6725 2.92894 17.0711C4.32746 18.4696 6.10929 19.422 8.0491 19.8078C9.98891 20.1937 11.9996 19.9957 13.8268 19.2388C15.6541 18.4819 17.2159 17.2002 18.3147 15.5557C19.4135 13.9112 20 11.9778 20 10C20 7.34783 18.9464 4.8043 17.0711 2.92893C15.1957 1.05357 12.6522 0 10 0V0ZM14.3727 12.9267C14.5478 13.1815 14.6178 13.494 14.5681 13.7992C14.5185 14.1044 14.3529 14.3786 14.106 14.5647C13.9125 14.8058 13.6334 14.9629 13.3268 15.0033C13.0203 15.0436 12.71 14.9641 12.4607 14.7813L9.96867 12.2153L7.4 14.7067C7.14531 14.8814 6.83305 14.9512 6.5282 14.9015C6.22335 14.8518 5.9494 14.6865 5.76334 14.44C5.52412 14.2463 5.36851 13.968 5.32868 13.6628C5.28885 13.3575 5.36785 13.0486 5.54934 12.8L8.11667 10.308L5.62467 7.738C5.44954 7.4832 5.37952 7.17063 5.4292 6.86547C5.47888 6.56031 5.64443 6.28609 5.89134 6.1C6.08476 5.85982 6.36323 5.70332 6.66897 5.66298C6.9747 5.62263 7.28423 5.70154 7.53334 5.88333L10.0253 8.45L12.5933 5.95867C12.848 5.78394 13.1603 5.71416 13.4651 5.76382C13.77 5.81349 14.0439 5.9788 14.23 6.22533C14.4711 6.41886 14.6282 6.69798 14.6686 7.00451C14.709 7.31104 14.6295 7.62132 14.4467 7.87067L11.8813 10.36L14.3727 12.9267Z" fill="#FB4242"/>
</svg>
