<svg xmlns="http://www.w3.org/2000/svg" width="31.111" height="20" viewBox="0 0 31.111 20">
  <g id="Eye_-_Web" data-name="Eye - Web" transform="translate(-2 -7)">
    <g id="Group_465" data-name="Group 465" transform="translate(2 7)">
      <path id="Path_829" data-name="Path 829" d="M17.556,27a17.208,17.208,0,0,1-12.63-5.653A1.111,1.111,0,0,1,6.55,19.83a15,15,0,0,0,11.006,4.948A15.484,15.484,0,0,0,30.711,17,15.483,15.483,0,0,0,17.556,9.222c-5.487,0-10.524,3.112-13.478,8.326a1.111,1.111,0,1,1-1.933-1.1C5.5,10.533,11.259,7,17.556,7s12.059,3.533,15.411,9.452a1.111,1.111,0,0,1,0,1.094C29.614,23.466,23.853,27,17.556,27Z" transform="translate(-2 -7)" fill="#6a4eee"/>
    </g>
    <g id="Group_466" data-name="Group 466" transform="translate(12 11.444)">
      <path id="Path_830" data-name="Path 830" d="M16.556,22.111a5.556,5.556,0,1,1,5.556-5.556A5.562,5.562,0,0,1,16.556,22.111Zm0-8.889a3.333,3.333,0,1,0,3.333,3.333A3.337,3.337,0,0,0,16.556,13.222Z" transform="translate(-11 -11)" fill="#6a4eee"/>
    </g>
  </g>
</svg>
