<svg width="40" height="40" viewBox="0 0 40 40" fill="none" xmlns="http://www.w3.org/2000/svg">
<circle cx="20" cy="20" r="20" fill="#EFECFF"/>
<path fill-rule="evenodd" clip-rule="evenodd" d="M17.143 9.38175C19.0302 9.83639 19.9739 9.83639 21.8611 9.38175C22.0953 9.32534 22.5949 9.32534 23.3599 9.38175C23.697 9.38175 23.9704 9.63999 23.9704 9.95855C23.9704 10.0491 23.9478 10.1385 23.9045 10.2193L21.8409 14.0673C25.2587 16.6148 26.9561 19.8932 26.9331 23.9026C26.9222 25.7976 26.1035 30.6668 19.4667 30.6668C12.8298 30.6668 11.9839 26.6965 12.0002 23.9026C12.0232 19.9665 13.7155 16.6955 17.077 14.0894L15.0275 10.2165C14.8768 9.93158 14.999 9.58511 15.3006 9.44264C15.3853 9.4026 15.4788 9.38175 15.5736 9.38175C16.3528 9.31741 16.8759 9.31741 17.143 9.38175Z" stroke="#6A4EEE" stroke-width="0.8"/>
<path d="M18.9926 14.3109C18.9926 13.9836 18.7272 13.7183 18.4 13.7183C18.0727 13.7183 17.8074 13.9836 17.8074 14.3109V16.3257C17.8074 16.6529 18.0727 16.9183 18.4 16.9183C18.7272 16.9183 18.9926 16.6529 18.9926 16.3257V14.3109Z" fill="#6A4EEE"/>
<path d="M22.6312 13.3613H16.3497C16.0224 13.3613 15.7571 13.6266 15.7571 13.9539C15.7571 14.2812 16.0224 14.5465 16.3497 14.5465H22.6312C22.9584 14.5465 23.2237 14.2812 23.2237 13.9539C23.2237 13.6266 22.9584 13.3613 22.6312 13.3613Z" fill="#6A4EEE"/>
<path d="M27.7272 27.8223H24.0531C23.2676 27.8223 22.6309 28.459 22.6309 29.2445C22.6309 30.03 23.2676 30.6667 24.0531 30.6667H27.7272C28.5126 30.6667 29.1494 30.03 29.1494 29.2445C29.1494 28.459 28.5126 27.8223 27.7272 27.8223Z" fill="#B9AAFD" stroke="#6A4EEE" stroke-width="0.8"/>
<path d="M26.222 24.9761H22.548C21.7625 24.9761 21.1257 25.6128 21.1257 26.3983C21.1257 27.1838 21.7625 27.8205 22.548 27.8205H26.222C27.0075 27.8205 27.6443 27.1838 27.6443 26.3983C27.6443 25.6128 27.0075 24.9761 26.222 24.9761Z" fill="#B9AAFD" stroke="#6A4EEE" stroke-width="0.8"/>
<path d="M27.763 22.1323H24.089C23.3035 22.1323 22.6667 22.7691 22.6667 23.5545C22.6667 24.34 23.3035 24.9768 24.089 24.9768H27.763C28.5485 24.9768 29.1853 24.34 29.1853 23.5545C29.1853 22.7691 28.5485 22.1323 27.763 22.1323Z" fill="#B9AAFD" stroke="#6A4EEE" stroke-width="0.8"/>
</svg>
