<svg xmlns="http://www.w3.org/2000/svg" width="31.191" height="30.302" viewBox="0 0 31.191 30.302">
  <path id="Holdings" d="M32.3,18.3a2.282,2.282,0,0,0-3.226-.431l-3.758,2.923a1.9,1.9,0,0,0-1.594-.881H18.472a10.372,10.372,0,0,0-5.3-.7,15.933,15.933,0,0,0-4.447,1.844A1.972,1.972,0,0,0,6.1,20.471L2.241,22.7a.481.481,0,0,0-.176.657L7.342,32.5A.48.48,0,0,0,8,32.675l3.86-2.23h0a1.977,1.977,0,0,0,.987-1.892h9.692a4.722,4.722,0,0,0,3.282-1.315l6.229-5.917A2.28,2.28,0,0,0,32.3,18.3ZM11.376,29.614,7.934,31.6l-4.8-8.314L6.581,21.3a1.03,1.03,0,0,1,1.41.378l3.749,6.5.055.107A1.024,1.024,0,0,1,11.376,29.614Zm20.01-8.988-6.231,5.918a3.77,3.77,0,0,1-2.619,1.049H12.512L9.218,21.882a15.2,15.2,0,0,1,4.069-1.714,9.429,9.429,0,0,1,4.865.655.484.484,0,0,0,.214.05h5.359a.924.924,0,0,1,.91.767c0,.007,0,.012.006.019h0a.671.671,0,0,1,.01.131.932.932,0,0,1-.923.923H19.192v.961h4.532a1.893,1.893,0,0,0,1.884-1.884v-.006l4.057-3.156a1.348,1.348,0,0,1,1.87.248,1.32,1.32,0,0,1-.148,1.747ZM9.829,28.363a.481.481,0,0,1,.038.183.487.487,0,0,1-.145.341.476.476,0,0,1-.153.106.482.482,0,0,1-.183.038.488.488,0,0,1-.188-.038.478.478,0,0,1-.153-.106.4.4,0,0,1-.106-.158.461.461,0,0,1-.038-.183.481.481,0,0,1,.038-.183.419.419,0,0,1,.106-.153.309.309,0,0,1,.072-.063A.483.483,0,0,1,9.2,28.1a.713.713,0,0,1,.092-.029.465.465,0,0,1,.432.135.413.413,0,0,1,.106.153Zm11.1-10.95a7.336,7.336,0,1,0-7.337-7.336,7.336,7.336,0,0,0,7.337,7.336Zm0-13.711a6.375,6.375,0,1,1-6.375,6.375A6.375,6.375,0,0,1,20.93,3.7Zm-1.755,8.088-.168-.176-.388.642.093.1a3.006,3.006,0,0,0,1.926.837v.965h.68V13.2c1.415-.124,1.924-.953,1.924-1.709,0-1.186-1.032-1.5-1.924-1.722V7.7a2.764,2.764,0,0,1,1.235.444l.181.123.314-.678-.123-.09a3.231,3.231,0,0,0-1.607-.549V5.991h-.68v.977c-1.335.142-1.816.963-1.816,1.706,0,1.193,1.008,1.509,1.816,1.713v2.058a2.492,2.492,0,0,1-1.462-.657Zm2.142-1.23c.764.211,1.129.433,1.129.952s-.408.853-1.129.935Zm-1.7-1.893c0-.511.369-.85,1.021-.946V9.592C19.974,9.4,19.617,9.172,19.617,8.666Z" transform="translate(-1.82 -2.59)" fill="#6344f2" stroke="#6344f2" stroke-linecap="round" stroke-linejoin="round" stroke-width="0.3"/>
</svg>
