<svg width="40" height="40" viewBox="0 0 40 40" fill="none" xmlns="http://www.w3.org/2000/svg">
<circle cx="20" cy="20" r="20" fill="#EFECFF"/>
<circle cx="16.16" cy="16.1602" r="6.82667" fill="#B9AAFD"/>
<path d="M11.3333 11.3334C12.6666 10.0001 14.4124 9.3335 16.1581 9.3335C17.9039 9.3335 19.6497 10.0001 20.9829 11.3334C22.3162 12.6667 22.9829 14.4125 22.9829 16.1582C22.9829 17.904 22.3162 19.6498 20.9829 20.9831C19.6497 22.3164 17.9039 22.983 16.1581 22.983C14.4124 22.983 12.6666 22.3164 11.3333 20.9831C10 19.6498 9.33337 17.904 9.33337 16.1582C9.33337 14.4125 10 12.6667 11.3333 11.3334ZM16.1581 10.0001C14.5832 10.0001 13.0082 10.6001 11.8041 11.8042C10.6 13.0084 10 14.5833 10 16.1582C10 17.7332 10.6 19.3081 11.8041 20.5123C13.0082 21.7164 14.5832 22.3164 16.1581 22.3164C17.7331 22.3164 19.308 21.7164 20.5121 20.5123C21.7163 19.3081 22.3162 17.7332 22.3162 16.1582C22.3162 14.5833 21.7163 13.0084 20.5121 11.8042C19.308 10.6001 17.7331 10.0001 16.1581 10.0001Z" fill="#6A4EEE" stroke="#6A4EEE" stroke-width="0.3"/>
<path d="M21.4948 23.8465L23.8489 21.4924C23.9781 21.3632 24.1906 21.3632 24.3197 21.4924L30.5237 27.6963C30.532 27.7047 30.5445 27.7172 30.5528 27.7297C30.6278 27.8213 30.6653 27.9296 30.6653 28.0421C30.6653 28.1671 30.6195 28.2921 30.5237 28.388L30.3862 28.2546L30.5237 28.3921L28.3904 30.5254C28.2946 30.6212 28.1696 30.667 28.0446 30.667C27.9196 30.667 27.7946 30.6212 27.6988 30.5254L27.9321 30.2879L27.6946 30.5254L21.4907 24.3214C21.3615 24.1923 21.3615 23.9798 21.4907 23.8506L21.4948 23.8465ZM24.0822 22.2007L22.199 24.084L28.0404 29.9254L29.9237 28.0421L24.0822 22.2007Z" fill="#6A4EEE" stroke="#6A4EEE" stroke-width="0.3"/>
<path d="M21.0701 20.758C20.941 20.6288 20.7285 20.6288 20.5993 20.758C20.4702 20.8872 20.4702 21.0997 20.5993 21.2288L22.5909 23.2204C22.7201 23.3496 22.9326 23.3496 23.0617 23.2204C23.1909 23.0913 23.1909 22.8788 23.0617 22.7496L21.0701 20.758Z" fill="#6A4EEE" stroke="#6A4EEE" stroke-width="0.3"/>
<path d="M19.5995 13.3695C19.5995 13.1861 19.4495 13.0361 19.2662 13.0361C19.0829 13.0361 18.9329 13.1861 18.9329 13.3695V18.9442C18.9329 19.1276 19.0829 19.2776 19.2662 19.2776C19.4495 19.2776 19.5995 19.1276 19.5995 18.9442V13.3695Z" fill="#6A4EEE" stroke="#6A4EEE" stroke-width="0.2"/>
<path d="M17.5285 14.7991C17.5285 14.6158 17.3785 14.4658 17.1951 14.4658C17.0118 14.4658 16.8618 14.6158 16.8618 14.7991V18.9448C16.8618 19.1281 17.0118 19.2781 17.1951 19.2781C17.3785 19.2781 17.5285 19.1281 17.5285 18.9448V14.7991Z" fill="#6A4EEE" stroke="#6A4EEE" stroke-width="0.2"/>
<path d="M15.455 15.932C15.455 15.7486 15.305 15.5986 15.1217 15.5986C14.9383 15.5986 14.7883 15.7486 14.7883 15.932V18.9443C14.7883 19.1277 14.9383 19.2777 15.1217 19.2777C15.305 19.2777 15.455 19.1277 15.455 18.9443V15.932Z" fill="#6A4EEE" stroke="#6A4EEE" stroke-width="0.2"/>
<path d="M13.3827 16.8382C13.3827 16.6549 13.2327 16.5049 13.0494 16.5049C12.8661 16.5049 12.7161 16.6549 12.7161 16.8382V18.9465C12.7161 19.1298 12.8661 19.2798 13.0494 19.2798C13.2327 19.2798 13.3827 19.1298 13.3827 18.9465V16.8382Z" fill="#6A4EEE" stroke="#6A4EEE" stroke-width="0.2"/>
</svg>
