<svg xmlns="http://www.w3.org/2000/svg" width="30.732" height="30.5" viewBox="0 0 30.732 30.5">
  <g id="Market_Overview" data-name="Market Overview" transform="translate(-3.831 -5.348)">
    <path id="Path_163" data-name="Path 163" d="M28.292,27.6V25.339a3.087,3.087,0,0,0,2.947-2.821A3.086,3.086,0,0,0,28.292,19.7V15.914a2.11,2.11,0,0,1,1.991,1.859.478.478,0,1,0,.956,0,3.086,3.086,0,0,0-2.947-2.821V12.7a.478.478,0,1,0-.956,0v2.258a3.087,3.087,0,0,0-2.95,2.821,3.086,3.086,0,0,0,2.95,2.818v3.786a2.112,2.112,0,0,1-1.994-1.861.478.478,0,1,0-.956,0,3.087,3.087,0,0,0,2.95,2.822V27.6a.478.478,0,1,0,.956,0Zm1.991-5.078a2.111,2.111,0,0,1-1.991,1.86V20.659A2.11,2.11,0,0,1,30.283,22.517Zm-4.942-4.744a2.112,2.112,0,0,1,1.994-1.859V19.63A2.11,2.11,0,0,1,25.341,17.774Z" transform="translate(-13.623 -4.441)" fill="#6344f2" stroke="#6344f2" stroke-width="0.5"/>
    <path id="Path_164" data-name="Path 164" d="M24.294,15.7A10.107,10.107,0,1,0,14.188,25.81,10.117,10.117,0,0,0,24.294,15.7Zm-19.257,0a9.15,9.15,0,1,1,9.15,9.15A9.16,9.16,0,0,1,5.037,15.7Z" fill="#6344f2" stroke="#6344f2" stroke-width="0.5"/>
    <path id="Path_165" data-name="Path 165" d="M42.555,55.634l-1-3.908a.479.479,0,0,0-.58-.344l-3.881.983a.478.478,0,0,0,.235.927l2.775-.7-5.046,7.852L31.8,55.692a.5.5,0,0,0-.415-.207.479.479,0,0,0-.4.243l-4.379,7.753L21.98,60.1a.478.478,0,0,0-.638.066l-4.81,5.348a.478.478,0,0,0,.711.64l4.521-5.027,4.712,3.448a.479.479,0,0,0,.7-.151l4.267-7.553,3.231,4.709a.473.473,0,0,0,.4.208.479.479,0,0,0,.4-.22l5.446-8.474.714,2.782a.478.478,0,1,0,.926-.238Z" transform="translate(-8.272 -30.709)" fill="#6344f2" stroke="#6344f2" stroke-width="0.5"/>
  </g>
</svg>
