<svg xmlns="http://www.w3.org/2000/svg" width="21.411" height="30.3" viewBox="0 0 21.411 30.3">
  <g id="Positions" transform="translate(-6.85 -2.85)">
    <g id="icon-55-document-text" transform="translate(7 3)">
      <path id="document-text" d="M20.889,3H9.225A2.228,2.228,0,0,0,7,5.23V30.77A2.222,2.222,0,0,0,9.219,33H25.892a2.221,2.221,0,0,0,2.219-2.212V10.778L21.444,3Zm-.556,1.111H9.217A1.113,1.113,0,0,0,8.111,5.217V30.783a1.114,1.114,0,0,0,1.111,1.106H25.889A1.108,1.108,0,0,0,27,30.785v-18.9H22.553a2.216,2.216,0,0,1-2.22-2.229V4.111Zm1.111.556v4.99a1.117,1.117,0,0,0,1.107,1.121h4.115L21.444,4.667ZM10.333,10.778v1.111h7.778V10.778Zm0-3.333V8.556h7.778V7.444Zm0,6.667v1.111H24.778V14.111Zm0,3.333v1.111H24.778V17.444Zm0,3.333v1.111H24.778V20.778Zm0,3.333v1.111H24.778V24.111Zm0,3.333v1.111H24.778V27.444Z" transform="translate(-7 -3)" fill="#6344f2" stroke="#6344f2" stroke-width="0.3" fill-rule="evenodd"/>
    </g>
  </g>
</svg>
