<svg xmlns="http://www.w3.org/2000/svg" width="26.939" height="26.014" viewBox="0 0 26.939 26.014">
  <g id="Settings" transform="translate(0.507 0.5)">
    <g id="Group_295" data-name="Group 295" transform="translate(0 0)">
      <path id="Path_271" data-name="Path 271" d="M94.322,98.967q-.194-1.09-.388-2.176c-.009.076-.021.15-.029.226q.9-1.191,1.806-2.385c.085-.112.171-.224.256-.338a.294.294,0,0,0-.047-.356q-1.332-1.654-2.662-3.309l-.371-.462a.281.281,0,0,0-.285-.076L89.7,91.25c-.135.056-.274.109-.409.165.076.009.15.021.226.029l-1.632-.856c.044.059.091.118.135.176q-.41-1.381-.818-2.759c-.038-.129-.076-.262-.115-.391a.3.3,0,0,0-.282-.215H81.99a.3.3,0,0,0-.282.215Q81.3,89,80.89,90.373c-.038.129-.076.262-.115.391.044-.059.091-.118.135-.176l-1.632.856c.076-.009.15-.021.226-.029l-2.9-1.159c-.135-.056-.274-.109-.409-.165a.279.279,0,0,0-.285.076q-1.332,1.654-2.662,3.309l-.371.462a.3.3,0,0,0-.047.356q.9,1.191,1.806,2.385c.085.112.171.224.256.338-.009-.076-.021-.15-.029-.226q-.194,1.09-.388,2.176c.044-.059.091-.118.135-.176q-1.328.666-2.659,1.329c-.124.062-.25.124-.374.188a.3.3,0,0,0-.135.332c.262,1.306.535,2.615.809,3.923.038.182.076.365.115.55a.3.3,0,0,0,.282.215c1.021.091,2.038.182,3.059.271l.441.038c-.085-.05-.171-.1-.253-.147.376.518.753,1.038,1.126,1.556-.015-.05-.026-.1-.041-.147-.115.941-.226,1.885-.341,2.826-.015.132-.032.268-.047.4a.276.276,0,0,0,.147.253l3.644,1.738.518.247a.3.3,0,0,0,.356-.047q.971-1.019,1.938-2.041c.091-.1.185-.194.276-.291-.071.029-.138.059-.209.085h2.256c-.071-.029-.138-.059-.209-.085q.971,1.019,1.938,2.041c.091.1.185.194.276.291a.3.3,0,0,0,.356.047l3.644-1.738.518-.247a.29.29,0,0,0,.147-.253c-.115-.941-.226-1.885-.341-2.826-.015-.132-.032-.268-.047-.4-.015.05-.026.1-.041.147.376-.518.753-1.038,1.129-1.556-.085.05-.171.1-.253.147,1.021-.091,2.038-.182,3.059-.271l.441-.038a.3.3,0,0,0,.282-.215q.41-1.963.818-3.923c.038-.182.076-.365.115-.55a.3.3,0,0,0-.135-.332q-1.328-.666-2.659-1.329c-.124-.062-.25-.124-.373-.188-.338-.168-.635.338-.3.509q1.328.666,2.659,1.329c.124.062.25.124.374.188-.044-.112-.091-.221-.135-.332q-.41,1.963-.818,3.923c-.038.182-.076.365-.115.55l.282-.215c-1.165.1-2.332.185-3.494.312a.433.433,0,0,0-.321.232l-.282.388c-.226.312-.453.624-.676.935a.5.5,0,0,0-.144.294,1.537,1.537,0,0,0,.021.168c.038.329.079.656.118.985.082.691.168,1.382.25,2.073.05-.085.1-.171.147-.253l-3.644,1.738-.518.247c.118.015.238.029.356.047-.409-.432-.821-.862-1.229-1.294-.256-.268-.509-.535-.765-.8-.138-.147-.253-.318-.471-.324-.685-.018-1.371,0-2.056,0a.488.488,0,0,0-.371.085c-.038.035-.074.076-.109.115l-.674.709c-.479.5-.959,1.009-1.435,1.512.118-.015.238-.029.356-.047l-3.644-1.738-.518-.247c.05.085.1.171.147.253.071-.585.141-1.173.212-1.759.044-.374.091-.744.135-1.118a.778.778,0,0,0-.021-.529c-.182-.282-.4-.547-.594-.821-.171-.235-.338-.471-.509-.7a.4.4,0,0,0-.329-.156l-.309-.026-1.106-.1-2.012-.179.282.215q-.41-1.963-.818-3.923c-.038-.182-.076-.365-.115-.55-.044.112-.091.221-.135.332.544-.274,1.091-.544,1.635-.818l1.059-.529c.171-.085.426-.159.479-.368.074-.306.112-.626.168-.938.065-.368.132-.738.2-1.106a.471.471,0,0,0-.012-.341,1.736,1.736,0,0,0-.129-.171c-.212-.279-.424-.559-.635-.841L73.332,94c-.015.118-.029.238-.047.356q1.332-1.654,2.662-3.309c.124-.153.247-.309.371-.462-.094.026-.191.05-.285.076q.785.313,1.571.629l1.123.45c.2.079.4.179.6.241a.393.393,0,0,0,.321-.071l.418-.221,1.009-.529c.118-.062.212-.1.259-.244.021-.062.035-.124.056-.185.1-.324.191-.647.288-.968q.3-1,.591-1.991l-.282.215H86.8l-.282-.215c.168.562.332,1.123.5,1.688.109.365.215.726.324,1.091.053.179.088.45.259.556.271.162.565.294.841.441.259.135.512.282.776.406.2.1.429-.05.618-.126l1.044-.418q.935-.375,1.87-.747c-.094-.026-.191-.05-.285-.076q1.332,1.654,2.662,3.309l.371.462c-.015-.118-.029-.238-.047-.356-.491.65-.985,1.3-1.476,1.95-.191.25-.415.5-.579.765-.076.124-.024.288,0,.424.041.229.082.456.124.685.076.435.156.871.232,1.3a.3.3,0,0,0,.362.206A.3.3,0,0,0,94.322,98.967Z" transform="translate(-71.439 -87.4)" fill="#6a4eee" stroke="#6a4eee" stroke-linecap="round" stroke-linejoin="round" stroke-width="1"/>
      <path id="Path_272" data-name="Path 272" d="M358.1,362.763a4.063,4.063,0,1,1,.612-.044,4.274,4.274,0,0,1-.612.044.294.294,0,0,0,0,.588,4.678,4.678,0,1,0-.75-.062,4.887,4.887,0,0,0,.747.062A.294.294,0,0,0,358.1,362.763Z" transform="translate(-345.141 -346.181)" fill="#6a4eee" stroke="#6a4eee" stroke-linecap="round" stroke-linejoin="round" stroke-width="1"/>
    </g>
  </g>
</svg>
