<svg width="19" height="20" viewBox="0 0 19 20" fill="none" xmlns="http://www.w3.org/2000/svg">
<path d="M1.56254 14.4219C1.25146 14.4219 1 14.6739 1 14.9844V18.4345C1 18.745 1.25146 18.997 1.56254 18.997H17.3137C17.6247 18.997 17.8762 18.745 17.8762 18.4345V14.9844C17.8762 14.6739 17.6247 14.4219 17.3137 14.4219C17.0026 14.4219 16.7511 14.6739 16.7511 14.9844V17.8719H2.12508V14.9844C2.12508 14.6739 1.87362 14.4219 1.56254 14.4219Z" fill="#909093" stroke="#909093" stroke-width="0.4"/>
<path d="M9.46301 15.5512C9.77409 15.5512 10.0255 15.2992 10.0255 14.9887V2.88845L13.5937 6.33513C13.7023 6.44089 13.8435 6.4932 13.9841 6.4932C14.1315 6.4932 14.2783 6.43582 14.3886 6.32163C14.6046 6.0983 14.5984 5.74221 14.3751 5.5262L9.86185 1.16595C9.86128 1.16539 9.86128 1.16539 9.86072 1.16482L9.85341 1.15807C9.83316 1.13838 9.80784 1.12995 9.7859 1.1142C9.7499 1.08832 9.71671 1.05963 9.67565 1.04275C9.61152 1.01631 9.54345 1.00394 9.47482 1.00225C9.47088 1.00225 9.46694 1 9.46301 1C9.45907 1 9.45513 1.00225 9.45119 1.00225C9.38256 1.00394 9.31506 1.01631 9.25037 1.04275C9.2093 1.05963 9.17611 1.08832 9.14011 1.11363C9.11817 1.12995 9.09285 1.13838 9.0726 1.15807L9.06585 1.16426C9.06529 1.16482 9.06529 1.16482 9.06473 1.16539L4.55147 5.52563C4.32814 5.74165 4.32195 6.09774 4.53797 6.32107C4.75286 6.54439 5.11063 6.55114 5.33284 6.33457L8.90103 2.88788V14.9881C8.90047 15.2992 9.15192 15.5512 9.46301 15.5512Z" fill="#909093" stroke="#909093" stroke-width="0.4"/>
</svg>
