<svg xmlns="http://www.w3.org/2000/svg" width="14.2" height="18.287" viewBox="0 0 14.2 18.287">
  <g id="Withdraw" transform="translate(0.1 0.145)">
    <g id="Dribbble-Light-Preview" transform="translate(0 -0.002)">
      <g id="icons">
        <path id="arrow_repeat-_242_" data-name="arrow_repeat-[#242]" d="M18,6924.557v4.462a1.338,1.338,0,0,1-1.4,1.271H6.945a.318.318,0,0,0-.247.547l1.177,1.073a.6.6,0,0,1,0,.9.746.746,0,0,1-.99,0c-.959-.874-1.669-1.518-2.475-2.257a1.191,1.191,0,0,1,0-1.8l2.475-2.25a.746.746,0,0,1,.99,0,.6.6,0,0,1,0,.9L6.7,6928.478a.314.314,0,0,0,.247.541H15.9a.67.67,0,0,0,.7-.638v-3.824a.7.7,0,0,1,1.4,0m-14-1.118v-4.461a1.467,1.467,0,0,1,1.4-1.426h9.655c.312,0,.468-.271.247-.47l-1.177-1a.6.6,0,0,1,0-.9.746.746,0,0,1,.991,0c.386.353,2.092,1.9,2.474,2.25a1.191,1.191,0,0,1,0,1.8l-2.474,2.25a.753.753,0,0,1-.991-.006.626.626,0,0,1,0-.926l1.177-1.106a.37.37,0,0,0-.247-.623H6.1a.808.808,0,0,0-.7.791v3.824a.67.67,0,0,1-.7.637.67.67,0,0,1-.7-.637" transform="translate(-4 -6914.997)" fill="#fff" stroke="#fff" stroke-linecap="round" stroke-linejoin="round" stroke-width="0.2" fill-rule="evenodd"/>
      </g>
    </g>
  </g>
</svg>
