<svg xmlns="http://www.w3.org/2000/svg" width="12.207" height="8.202" viewBox="0 0 12.207 8.202">
  <path id="Chart" d="M32.282,53.934l-.564-2.351a.269.269,0,0,0-.327-.207l-2.183.591a.29.29,0,0,0-.195.349.268.268,0,0,0,.327.208L30.9,52.1l-2.839,4.724-1.832-2.857A.274.274,0,0,0,26,53.845a.268.268,0,0,0-.223.146l-2.464,4.665-2.6-2.037a.257.257,0,0,0-.359.04c-.145.187.008.386.237.578l2.651,2.075a.254.254,0,0,0,.215.049.271.271,0,0,0,.178-.14l2.4-4.545,1.818,2.834a.262.262,0,0,0,.226.125.266.266,0,0,0,.222-.132l3.064-5.1.4,1.674a.273.273,0,0,0,.26.216.253.253,0,0,0,.067-.009A.29.29,0,0,0,32.282,53.934Z" transform="translate(-20.191 -51.266)" fill="#111" stroke="#111" stroke-width="0.2"/>
</svg>
