<?xml version="1.0" encoding="utf-8"?>
<!-- Generator: Adobe Illustrator 17.0.0, SVG Export Plug-In . SVG Version: 6.00 Build 0)  -->
<!DOCTYPE svg PUBLIC "-//W3C//DTD SVG 1.1//EN" "http://www.w3.org/Graphics/SVG/1.1/DTD/svg11.dtd">
<svg version="1.1" id="Layer_1" xmlns="http://www.w3.org/2000/svg" xmlns:xlink="http://www.w3.org/1999/xlink" x="0px" y="0px"
	 width="25px" height="25px" viewBox="0 0 25 25" enable-background="new 0 0 25 25" xml:space="preserve">
<g id="Checkbox_Active" transform="translate(-587 -363)">
	<path id="Rectangle_245" display="none" fill="#6A4EEE" d="M592,363h15c2.761,0,5,2.239,5,5v15c0,2.761-2.239,5-5,5h-15
		c-2.761,0-5-2.239-5-5v-15C587,365.239,589.239,363,592,363z"/>
	<path id="_13352081061536572528" fill="#FFFFFF" stroke="#FFFFFF" stroke-width="0.5" d="M597.997,379.829
		c-0.176,0-0.344-0.07-0.468-0.194l-3.538-3.535c-0.253-0.264-0.244-0.683,0.02-0.936c0.256-0.245,0.66-0.245,0.916,0l3.041,3.04
		l6.079-6.809c0.233-0.282,0.65-0.322,0.932-0.089c0.282,0.233,0.322,0.65,0.089,0.932c-0.011,0.013-0.022,0.026-0.034,0.038
		l-6.546,7.332c-0.121,0.136-0.293,0.216-0.475,0.221H597.997z"/>
</g>
</svg>
