<svg xmlns="http://www.w3.org/2000/svg" width="11.081" height="12.301" viewBox="0 0 11.081 12.301">
  <g id="Convert" transform="translate(0.151 0.151)">
    <path id="Path_1111" data-name="Path 1111" d="M4.078,1.474v.017H7.5l.026,0a4.183,4.183,0,0,1,.924.174h0a3.139,3.139,0,0,1,.827.4,2.8,2.8,0,0,1,.466.394,2.764,2.764,0,0,1,.345.451,3.874,3.874,0,0,1,.371.844,7.837,7.837,0,0,1,.259,1.115,3.449,3.449,0,0,1,.044.391.858.858,0,0,1-.039.339.426.426,0,0,1-.078.129.352.352,0,0,1-.133.093c-.358.143-.651-.2-.826-.411h0l-.032-.038a2.7,2.7,0,0,0-1.076-.755,4.541,4.541,0,0,0-1.426-.284h-3.1V5.25a.206.206,0,0,1,0,.025.52.52,0,0,1-.209.444.57.57,0,0,1-.513.023.205.205,0,0,1-.062-.033L.207,3.306.192,3.294a.477.477,0,0,1-.181-.475.672.672,0,0,1,.263-.367L3.094.232A1.17,1.17,0,0,1,3.464.025a.488.488,0,0,1,.311,0,.417.417,0,0,1,.244.242.89.89,0,0,1,.06.35v.836a.17.17,0,0,1,0,.022ZM6.7,10.525v-.017H3.276l-.025,0a4.182,4.182,0,0,1-.924-.174h0a3.136,3.136,0,0,1-.827-.4,2.744,2.744,0,0,1-.815-.851,4.148,4.148,0,0,1-.4-.932A7.357,7.357,0,0,1,.034,6.967a2.422,2.422,0,0,1-.021-.3A.741.741,0,0,1,.053,6.4a.427.427,0,0,1,.078-.128.354.354,0,0,1,.133-.094c.358-.143.651.2.826.411h0l.032.038A2.7,2.7,0,0,0,2.2,7.384a4.541,4.541,0,0,0,1.426.284h3.1V6.749a.206.206,0,0,1,0-.025.52.52,0,0,1,.209-.444.57.57,0,0,1,.513-.023.2.2,0,0,1,.062.033l3.062,2.4.014.012a.477.477,0,0,1,.181.475.672.672,0,0,1-.263.367l-2.82,2.22a1.17,1.17,0,0,1-.371.207.489.489,0,0,1-.311,0,.417.417,0,0,1-.244-.242.89.89,0,0,1-.06-.35v-.836a.213.213,0,0,1,0-.022Zm.353-.269a.51.51,0,0,1,.058.276v.85a.507.507,0,0,0,.026.189c0,.012.006.016.006.016A.116.116,0,0,0,7.2,11.58a.771.771,0,0,0,.234-.136l2.819-2.22a.314.314,0,0,0,.117-.132c0-.015-.012-.041-.054-.08L7.286,6.636q-.1-.029-.122-.013t-.025.114v.9a.457.457,0,0,1-.053.267.35.35,0,0,1-.246.173.206.206,0,0,1-.05.006H3.615a4.96,4.96,0,0,1-1.566-.313A3.1,3.1,0,0,1,.812,6.9L.777,6.856h0c-.1-.115-.255-.3-.343-.3a.435.435,0,0,0-.01.111,2.108,2.108,0,0,0,.019.248A6.913,6.913,0,0,0,.681,8.034a3.736,3.736,0,0,0,.354.837,2.355,2.355,0,0,0,.3.387,2.392,2.392,0,0,0,.4.338,2.745,2.745,0,0,0,.721.344,3.767,3.767,0,0,0,.832.156H6.738a.332.332,0,0,1,.316.159ZM3.726,1.743a.508.508,0,0,1-.058-.276V.616A.509.509,0,0,0,3.641.427c0-.012-.006-.016-.006-.016a.115.115,0,0,0-.053.008.772.772,0,0,0-.234.136L.529,2.775a.313.313,0,0,0-.116.132c0,.015.012.041.054.08L3.494,5.363q.1.029.122.013c.014-.009.023-.048.025-.114v-.9A.458.458,0,0,1,3.694,4.1a.351.351,0,0,1,.246-.173.206.206,0,0,1,.05-.006H7.165a4.954,4.954,0,0,1,1.566.313A3.1,3.1,0,0,1,9.968,5.1L10,5.143h0c.1.115.255.3.343.3a.582.582,0,0,0,.008-.167,3.029,3.029,0,0,0-.039-.343,7.435,7.435,0,0,0-.244-1.055,3.465,3.465,0,0,0-.33-.752,2.36,2.36,0,0,0-.295-.385,2.387,2.387,0,0,0-.4-.336,2.745,2.745,0,0,0-.721-.344A3.767,3.767,0,0,0,7.5,1.9H4.042a.332.332,0,0,1-.316-.159Z" transform="translate(0)" stroke="#121212" stroke-width="0.3"/>
  </g>
</svg>
