<svg xmlns="http://www.w3.org/2000/svg" width="16.2" height="15.2" viewBox="0 0 16.2 15.2">
  <g id="Download" transform="translate(0.1 -0.9)">
    <path id="Path_1109" data-name="Path 1109" d="M15.5,22a.5.5,0,0,0-.5.5V26H1V22.5a.5.5,0,0,0-1,0v4a.5.5,0,0,0,.5.5h15a.5.5,0,0,0,.5-.5v-4A.5.5,0,0,0,15.5,22Z" transform="translate(0 -11)" fill="#1964e4" stroke="#1964e4" stroke-width="0.2"/>
    <path id="Path_1110" data-name="Path 1110" d="M11.623,11.853a.512.512,0,0,0,.715,0l3.5-3.45a.5.5,0,0,0,0-.707.508.508,0,0,0-.714,0l-2.637,2.6V.5a.505.505,0,0,0-1.01,0v9.8L8.838,7.7a.508.508,0,0,0-.714,0,.5.5,0,0,0,0,.707Z" transform="translate(-3.988 1)" fill="#1964e4" stroke="#1964e4" stroke-width="0.2"/>
  </g>
</svg>
