<svg xmlns="http://www.w3.org/2000/svg" width="23.105" height="20.7" viewBox="0 0 23.105 20.7">
  <g id="Filter" transform="translate(0.35 -1.732)">
    <rect id="Rectangle_112" data-name="Rectangle 112" width="1.021" height="11.583" transform="translate(2.82 2.083)" fill="#6a4eee" stroke="#6a4eee" stroke-linecap="round" stroke-linejoin="round" stroke-width="0.7"/>
    <rect id="Rectangle_113" data-name="Rectangle 113" width="1.021" height="3.66" transform="translate(2.82 18.422)" fill="#6a4eee" stroke="#6a4eee" stroke-linecap="round" stroke-linejoin="round" stroke-width="0.7"/>
    <rect id="Rectangle_114" data-name="Rectangle 114" width="1.021" height="5.792" transform="translate(10.694 2.082)" fill="#6a4eee" stroke="#6a4eee" stroke-linecap="round" stroke-linejoin="round" stroke-width="0.7"/>
    <rect id="Rectangle_115" data-name="Rectangle 115" width="1.021" height="9.513" transform="translate(10.694 12.568)" fill="#6a4eee" stroke="#6a4eee" stroke-linecap="round" stroke-linejoin="round" stroke-width="0.7"/>
    <rect id="Rectangle_116" data-name="Rectangle 116" width="1.021" height="10.966" transform="translate(18.565 2.083)" fill="#6a4eee" stroke="#6a4eee" stroke-linecap="round" stroke-linejoin="round" stroke-width="0.7"/>
    <rect id="Rectangle_117" data-name="Rectangle 117" width="1.021" height="4.059" transform="translate(18.565 18.023)" fill="#6a4eee" stroke="#6a4eee" stroke-linecap="round" stroke-linejoin="round" stroke-width="0.7"/>
    <path id="Path_264" data-name="Path 264" d="M65.25,116.82a3.077,3.077,0,1,0,3.33,3.067A3.212,3.212,0,0,0,65.25,116.82Zm0,5.192a2.129,2.129,0,1,1,2.305-2.121A2.222,2.222,0,0,1,65.25,122.012Z" transform="translate(-61.92 -103.786)" fill="#6a4eee" stroke="#6a4eee" stroke-linecap="round" stroke-linejoin="round" stroke-width="0.7"/>
    <path id="Path_265" data-name="Path 265" d="M133.33,184a3.077,3.077,0,1,0,3.33,3.067A3.211,3.211,0,0,0,133.33,184Zm0,5.191a2.128,2.128,0,1,1,2.3-2.121A2.222,2.222,0,0,1,133.33,189.191Z" transform="translate(-122.124 -176.903)" fill="#6a4eee" stroke="#6a4eee" stroke-linecap="round" stroke-linejoin="round" stroke-width="0.7"/>
    <path id="Path_266" data-name="Path 266" d="M201.376,125.26a3.077,3.077,0,1,0,3.33,3.067A3.208,3.208,0,0,0,201.376,125.26Zm0,5.192a2.129,2.129,0,1,1,2.305-2.121A2.222,2.222,0,0,1,201.376,130.452Z" transform="translate(-182.302 -112.973)" fill="#6a4eee" stroke="#6a4eee" stroke-linecap="round" stroke-linejoin="round" stroke-width="0.7"/>
  </g>
</svg>
