<svg width="23" height="17" viewBox="0 0 23 17" fill="none" xmlns="http://www.w3.org/2000/svg">
<path d="M2.87529 1C2.62486 1.00391 2.37765 1.05719 2.14782 1.15674C1.91799 1.25629 1.71005 1.40013 1.53589 1.58014C1.36174 1.76015 1.22479 1.97276 1.13288 2.20575C1.04098 2.43874 0.995921 2.68756 1.00029 2.93799V14.058C0.992522 14.5638 1.18544 15.0522 1.53684 15.4161C1.88823 15.7801 2.36949 15.99 2.87529 16H20.5543C21.0601 15.99 21.5413 15.7801 21.8927 15.4161C22.2441 15.0522 22.4371 14.5638 22.4293 14.058V2.93799C22.437 2.4329 22.2439 1.94544 21.8923 1.58276C21.5406 1.22008 21.0594 1.01192 20.5543 1.00403H2.87529V1ZM2.87529 1.53601H20.5543C20.8771 1.53822 21.1876 1.6605 21.4253 1.87903L12.5613 10.3C12.4513 10.4102 12.3205 10.4975 12.1766 10.5568C12.0326 10.6161 11.8783 10.6463 11.7226 10.6455C11.5669 10.6448 11.4129 10.6131 11.2695 10.5524C11.1261 10.4917 10.9962 10.4032 10.8873 10.292L2.00029 1.87903C2.23796 1.6605 2.54844 1.53822 2.87129 1.53601H2.87529ZM1.68629 2.31403L8.30729 8.59198L1.87829 15.004C1.65516 14.7395 1.53356 14.4041 1.53529 14.058V2.93799C1.53804 2.72256 1.58967 2.51056 1.68629 2.31799V2.31403ZM21.7423 2.31403C21.8389 2.50661 21.8905 2.71859 21.8933 2.93402V14.058C21.8951 14.4041 21.7735 14.7395 21.5503 15.004L15.1383 8.58398L21.7423 2.31403ZM14.7533 8.95203L21.1153 15.33C20.9409 15.4168 20.7491 15.4627 20.5543 15.464H2.87529C2.68052 15.4627 2.48864 15.4168 2.31429 15.33L8.69229 8.96002L10.5173 10.684C10.8414 10.9954 11.2734 11.1693 11.7228 11.1693C12.1722 11.1693 12.6042 10.9954 12.9283 10.684L14.7533 8.95099V8.95203Z" fill="#D2D0E1" stroke="#D2D0E1" stroke-width="0.4"/>
</svg>
