<svg width="16" height="19" viewBox="0 0 16 19" fill="none" xmlns="http://www.w3.org/2000/svg">
<path d="M12.845 7.00764H12.264V4.76664C12.2769 4.14537 12.1656 3.52777 11.9367 2.95005C11.7079 2.37232 11.366 1.84608 10.9312 1.40216C10.4964 0.958233 9.9773 0.605556 9.40443 0.364787C8.83156 0.124018 8.21641 0 7.595 0C6.9736 0 6.35844 0.124018 5.78557 0.364787C5.2127 0.605556 4.69365 0.958233 4.25882 1.40216C3.82399 1.84608 3.48213 2.37232 3.25327 2.95005C3.0244 3.52777 2.91314 4.14537 2.926 4.76664V6.98664H2.345C1.72396 6.98953 1.12918 7.23752 0.690031 7.67667C0.250884 8.11582 0.00289289 8.7106 0 9.33164V16.3456C0.00210382 16.9672 0.249747 17.5627 0.688979 18.0025C1.12821 18.4423 1.72344 18.6907 2.345 18.6936H12.845C13.466 18.6907 14.0608 18.4428 14.5 18.0036C14.9391 17.5645 15.1871 16.9697 15.19 16.3486V9.33164C15.1863 8.71278 14.9374 8.12063 14.4978 7.68499C14.0582 7.24936 13.4639 7.00577 12.845 7.00764ZM4.088 7.00764V4.76664C4.07683 4.29905 4.15929 3.83394 4.33051 3.39868C4.50174 2.96342 4.75827 2.5668 5.08503 2.23214C5.41179 1.89749 5.80218 1.63155 6.23322 1.44999C6.66427 1.26842 7.12728 1.17488 7.595 1.17488C8.06273 1.17488 8.52573 1.26842 8.95678 1.44999C9.38782 1.63155 9.77821 1.89749 10.105 2.23214C10.4317 2.5668 10.6883 2.96342 10.8595 3.39868C11.0307 3.83394 11.1132 4.29905 11.102 4.76664V6.98664H4.088V7.00764ZM14.007 16.3456C14.0073 16.4983 13.9774 16.6495 13.9191 16.7906C13.8608 16.9317 13.7752 17.0599 13.6672 17.1679C13.5593 17.2758 13.4311 17.3614 13.29 17.4197C13.1489 17.478 12.9977 17.5079 12.845 17.5076H2.345C2.19233 17.5079 2.04111 17.478 1.90001 17.4197C1.75891 17.3614 1.63071 17.2758 1.52275 17.1679C1.4148 17.0599 1.32922 16.9317 1.27092 16.7906C1.21261 16.6495 1.18274 16.4983 1.183 16.3456V9.33164C1.18274 9.17897 1.21261 9.02775 1.27092 8.88665C1.32922 8.74555 1.4148 8.61735 1.52275 8.50939C1.63071 8.40144 1.75891 8.31586 1.90001 8.25755C2.04111 8.19925 2.19233 8.16937 2.345 8.16964H12.845C12.9977 8.16937 13.1489 8.19925 13.29 8.25755C13.4311 8.31586 13.5593 8.40144 13.6672 8.50939C13.7752 8.61735 13.8608 8.74555 13.9191 8.88665C13.9774 9.02775 14.0073 9.17897 14.007 9.33164V16.3456ZM8.757 11.6766C8.75827 11.8823 8.70521 12.0847 8.60319 12.2632C8.50117 12.4418 8.35381 12.5903 8.176 12.6936V14.6026C8.176 14.7567 8.11479 14.9045 8.00583 15.0135C7.89687 15.1224 7.74909 15.1836 7.595 15.1836C7.44091 15.1836 7.29313 15.1224 7.18417 15.0135C7.07521 14.9045 7.014 14.7567 7.014 14.6026V12.6936C6.79257 12.5646 6.61967 12.3664 6.52193 12.1295C6.42418 11.8925 6.407 11.6301 6.47303 11.3824C6.53906 11.1348 6.68464 10.9157 6.88736 10.7589C7.09009 10.6021 7.33872 10.5163 7.595 10.5146C7.74861 10.5109 7.90136 10.5385 8.04402 10.5956C8.18667 10.6526 8.31625 10.7381 8.4249 10.8467C8.53354 10.9554 8.619 11.085 8.67609 11.2276C8.73317 11.3703 8.7607 11.523 8.757 11.6766Z" fill="#D2D0E1"/>
</svg>
