<svg xmlns="http://www.w3.org/2000/svg" width="10.664" height="11.996" viewBox="0 0 10.664 11.996">
  <g id="Alert" transform="translate(-70.366 -2.212)">
    <g id="Group_687" data-name="Group 687" transform="translate(70.366 2.208)">
      <g id="Group_686" data-name="Group 686">
        <path id="Path_829" data-name="Path 829" d="M80.932,11.426l-.717-1.346V6.754a4.788,4.788,0,0,0-3.177-4.4c.209.069.16.046,0,0a5.184,5.184,0,0,0-2.592.066,4.524,4.524,0,0,0-3.263,4.339V10.08l-.717,1.346a.829.829,0,0,0,.732,1.219h2.848a1.657,1.657,0,0,0,3.308,0H80.2a.829.829,0,0,0,.732-1.219ZM71.845,6.754a3.853,3.853,0,0,1,7.706,0V9.805H71.845ZM75.7,13.545a1,1,0,0,1-.989-.9h1.978A1,1,0,0,1,75.7,13.545ZM80.342,11.9a.163.163,0,0,1-.142.08h-9a.166.166,0,0,1-.146-.244l.676-1.27H79.67l.676,1.27A.163.163,0,0,1,80.342,11.9Z" transform="translate(-70.366 -2.208)"/>
      </g>
    </g>
    <g id="Group_689" data-name="Group 689" transform="translate(72.729 3.785)">
      <g id="Group_688" data-name="Group 688">
        <path id="Path_830" data-name="Path 830" d="M155.591,149.113a2.973,2.973,0,0,0-2.969,2.969.332.332,0,0,0,.663,0,2.309,2.309,0,0,1,2.306-2.306.332.332,0,1,0,0-.663Z" transform="translate(-152.622 -149.113)"/>
      </g>
    </g>
  </g>
</svg>
