<svg xmlns="http://www.w3.org/2000/svg" width="22.407" height="12.374" viewBox="0 0 22.407 12.374">
  <path id="Chart" d="M42.275,55.205,41.241,51.69a.5.5,0,0,0-.6-.31l-4,.884a.429.429,0,0,0-.357.522.5.5,0,0,0,.6.311l2.862-.632L34.538,59.53l-3.36-4.272a.54.54,0,0,0-.428-.186.507.507,0,0,0-.408.218l-4.517,6.975-4.773-3.046a.547.547,0,0,0-.658.059c-.266.279.015.577.435.865l4.86,3.1a.548.548,0,0,0,.4.073.493.493,0,0,0,.325-.209l4.4-6.8,3.332,4.237a.535.535,0,0,0,.822-.011l5.618-7.623.737,2.5a.486.486,0,0,0,.477.323.565.565,0,0,0,.123-.014A.429.429,0,0,0,42.275,55.205Z" transform="translate(-20.086 -51.156)" fill="#111" stroke="#111" stroke-width="0.4"/>
</svg>
