<?xml version="1.0" encoding="utf-8"?>
<!-- Generator: Adobe Illustrator 17.0.0, SVG Export Plug-In . SVG Version: 6.00 Build 0)  -->
<!DOCTYPE svg PUBLIC "-//W3C//DTD SVG 1.1//EN" "http://www.w3.org/Graphics/SVG/1.1/DTD/svg11.dtd">
<svg version="1.1" id="Layer_1" xmlns="http://www.w3.org/2000/svg" xmlns:xlink="http://www.w3.org/1999/xlink" x="0px" y="0px"
	 width="22.407px" height="12.374px" viewBox="0 0 22.407 12.374" enable-background="new 0 0 22.407 12.374" xml:space="preserve">
<path id="Chart" fill="#FFFFFF" stroke="#FFFFFF" stroke-width="0.4" d="M22.189,4.049l-1.034-3.515
	c-0.089-0.243-0.35-0.378-0.6-0.31l-4,0.884c-0.235,0.034-0.397,0.251-0.364,0.485c0.002,0.012,0.004,0.024,0.007,0.037
	c0.089,0.244,0.35,0.379,0.6,0.311l2.862-0.632l-5.208,7.065l-3.36-4.272c-0.107-0.124-0.265-0.192-0.428-0.186
	C10.501,3.919,10.349,4,10.256,4.134l-4.517,6.975L0.966,8.063c-0.208-0.13-0.477-0.106-0.658,0.059
	C0.042,8.401,0.323,8.699,0.743,8.987l4.86,3.1c0.119,0.075,0.262,0.101,0.4,0.073c0.132-0.023,0.25-0.098,0.325-0.209l4.4-6.8
	l3.332,4.237c0.192,0.224,0.53,0.251,0.754,0.058c0.025-0.021,0.047-0.044,0.068-0.069L20.5,1.754l0.737,2.5
	c0.071,0.2,0.264,0.331,0.477,0.323c0.041,0,0.083-0.005,0.123-0.014c0.234-0.037,0.394-0.257,0.356-0.491
	C22.192,4.064,22.191,4.057,22.189,4.049z"/>
</svg>
