<svg xmlns="http://www.w3.org/2000/svg" width="12.347" height="12" viewBox="0 0 12.347 12">
  <g id="Create_GTT" data-name="Create GTT" transform="translate(0 -1.405)">
    <g id="Group_204" data-name="Group 204" transform="translate(0 1.405)">
      <g id="Group_197" data-name="Group 197" transform="translate(5.571 0)">
        <g id="Group_196" data-name="Group 196">
          <path id="Path_213" data-name="Path 213" d="M45.931,2.959a.776.776,0,1,1,.543-1.329l.005.005a.775.775,0,0,1-.548,1.323Z" transform="translate(-45.15 -1.405)" fill="#121212"/>
          <path id="Path_214" data-name="Path 214" d="M61.711,18.759a.773.773,0,0,1-.547-.225l-.012-.012a.775.775,0,0,1,1.093-1.1l.012.011a.775.775,0,0,1-.546,1.325Zm-1.742-1.742a.773.773,0,0,1-.548-.227l-.012-.011a.775.775,0,0,1,1.1-1.1l.012.011a.775.775,0,0,1-.548,1.323Z" transform="translate(-57.446 -13.72)" fill="#121212"/>
          <path id="Path_215" data-name="Path 215" d="M88.185,45.24a.777.777,0,1,1,.546-1.33l.006.005a.776.776,0,0,1-.552,1.325Z" transform="translate(-82.189 -38.464)" fill="#121212"/>
          <path id="Path_216" data-name="Path 216" d="M59.957,61.082a.775.775,0,0,1-.548-1.323l.012-.011a.775.775,0,1,1,1.1,1.1l-.012.012A.773.773,0,0,1,59.957,61.082ZM61.7,59.34a.775.775,0,0,1-.548-1.323l.011-.012a.775.775,0,0,1,1.1,1.1l-.011.011A.772.772,0,0,1,61.7,59.34Z" transform="translate(-57.446 -50.818)" fill="#121212"/>
          <path id="Path_217" data-name="Path 217" d="M45.9,87.581a.778.778,0,1,1,.553-.232l-.005.005A.772.772,0,0,1,45.9,87.581Z" transform="translate(-45.12 -75.581)" fill="#121212"/>
        </g>
      </g>
      <g id="Group_199" data-name="Group 199" transform="translate(3.272 0.155)">
        <g id="Group_198" data-name="Group 198">
          <path id="Path_218" data-name="Path 218" d="M27.152,3.9a.621.621,0,1,1,.433-1.064l.005.005A.62.62,0,0,1,27.152,3.9Z" transform="translate(-26.526 -2.66)" fill="#121212"/>
          <path id="Path_219" data-name="Path 219" d="M42.93,19.7a.618.618,0,0,1-.437-.18l-.012-.012a.62.62,0,0,1,.874-.88l.012.011a.62.62,0,0,1-.437,1.06Zm-1.742-1.742a.618.618,0,0,1-.438-.182l-.011-.011a.62.62,0,0,1,.877-.877l.011.011a.62.62,0,0,1-.438,1.059Z" transform="translate(-38.821 -14.975)" fill="#121212"/>
          <path id="Path_220" data-name="Path 220" d="M69.408,46.184a.622.622,0,1,1,.437-1.066l.006.005a.622.622,0,0,1-.443,1.06Z" transform="translate(-63.566 -39.719)" fill="#121212"/>
          <path id="Path_221" data-name="Path 221" d="M41.178,62.028a.62.62,0,0,1-.44-1.057l.011-.012a.62.62,0,0,1,.88.874l-.011.012A.618.618,0,0,1,41.178,62.028Zm1.742-1.742a.62.62,0,0,1-.438-1.058l.012-.012a.62.62,0,1,1,.877.877l-.012.012A.619.619,0,0,1,42.92,60.286Z" transform="translate(-38.822 -52.074)" fill="#121212"/>
          <path id="Path_222" data-name="Path 222" d="M27.118,88.527a.623.623,0,1,1,.444-.187l-.006.005A.617.617,0,0,1,27.118,88.527Z" transform="translate(-26.498 -76.837)" fill="#121212"/>
        </g>
      </g>
      <g id="Group_201" data-name="Group 201" transform="translate(1.521 0.31)">
        <g id="Group_200" data-name="Group 200">
          <path id="Path_223" data-name="Path 223" d="M12.819,4.849a.463.463,0,0,1-.329-.136.468.468,0,0,1,0-.66.462.462,0,0,1,.655,0l.005.005a.465.465,0,0,1-.329.794Z" transform="translate(-12.349 -3.915)" fill="#121212"/>
          <path id="Path_224" data-name="Path 224" d="M28.6,20.648a.463.463,0,0,1-.329-.136l-.011-.011a.465.465,0,0,1,.658-.658l.011.011a.465.465,0,0,1-.329.794Zm-1.742-1.742a.463.463,0,0,1-.329-.136l-.011-.012a.465.465,0,0,1,.658-.658l.011.012a.465.465,0,0,1-.329.794Z" transform="translate(-24.644 -16.23)" fill="#121212"/>
          <path id="Path_225" data-name="Path 225" d="M55.075,47.129a.465.465,0,0,1-.434-.631.465.465,0,0,1,.762-.17l.005.005a.466.466,0,0,1-.333.8Z" transform="translate(-49.388 -40.973)" fill="#121212"/>
          <path id="Path_226" data-name="Path 226" d="M26.845,62.972a.465.465,0,0,1-.33-.793l.011-.011a.465.465,0,1,1,.66.655l-.011.012A.462.462,0,0,1,26.845,62.972Zm1.742-1.742a.465.465,0,0,1-.329-.794l.011-.012a.465.465,0,0,1,.658.658l-.011.012A.463.463,0,0,1,28.587,61.23Z" transform="translate(-24.644 -53.328)" fill="#121212"/>
          <path id="Path_227" data-name="Path 227" d="M12.785,89.472a.465.465,0,0,1-.329-.794.468.468,0,0,1,.66,0,.462.462,0,0,1,0,.655l-.005.006A.464.464,0,0,1,12.785,89.472Z" transform="translate(-12.32 -78.092)" fill="#121212"/>
        </g>
      </g>
      <g id="Group_203" data-name="Group 203" transform="translate(0 0.465)">
        <g id="Group_202" data-name="Group 202">
          <path id="Path_228" data-name="Path 228" d="M.345,5.8A.309.309,0,0,1,.125,5.7a.313.313,0,0,1,0-.441.307.307,0,0,1,.436,0l.005.005A.31.31,0,0,1,.345,5.8Z" transform="translate(-0.029 -5.171)" fill="#121212"/>
          <path id="Path_229" data-name="Path 229" d="M16.124,21.593a.308.308,0,0,1-.218-.09l-.012-.011a.31.31,0,0,1,.437-.44l.012.012a.31.31,0,0,1-.218.53Zm-1.742-1.742a.308.308,0,0,1-.219-.091l-.012-.012a.31.31,0,0,1,.438-.438l.012.012a.31.31,0,0,1-.219.529Z" transform="translate(-12.324 -17.485)" fill="#121212"/>
          <path id="Path_230" data-name="Path 230" d="M42.6,48.076a.31.31,0,0,1-.289-.421.3.3,0,0,1,.071-.112.307.307,0,0,1,.436,0l.005.005a.31.31,0,0,1,0,.438A.314.314,0,0,1,42.6,48.076Z" transform="translate(-37.068 -42.23)" fill="#121212"/>
          <path id="Path_231" data-name="Path 231" d="M14.37,63.918a.31.31,0,0,1-.219-.529l.012-.012a.31.31,0,0,1,.438.438l-.012.012A.311.311,0,0,1,14.37,63.918Zm1.742-1.742a.31.31,0,0,1-.219-.529l.011-.012a.31.31,0,1,1,.438.438l-.011.012A.31.31,0,0,1,16.112,62.176Z" transform="translate(-12.324 -54.584)" fill="#121212"/>
          <path id="Path_232" data-name="Path 232" d="M.31,90.419a.31.31,0,0,1-.219-.529.313.313,0,0,1,.441,0,.307.307,0,0,1,0,.436l-.005.005A.31.31,0,0,1,.31,90.419Z" transform="translate(0 -79.349)" fill="#121212"/>
        </g>
      </g>
    </g>
  </g>
</svg>
