<svg xmlns="http://www.w3.org/2000/svg" width="13.988" height="16" viewBox="0 0 13.988 16">
  <g id="Delete" transform="translate(-5 -3)">
    <path id="Path_821" data-name="Path 821" d="M15.266,22.077H10.179A3.129,3.129,0,0,1,7,19V11.615a.636.636,0,0,1,1.272,0V19a1.878,1.878,0,0,0,1.907,1.846h5.087A1.878,1.878,0,0,0,17.173,19V11.615a.636.636,0,0,1,1.272,0V19A3.129,3.129,0,0,1,15.266,22.077Z" transform="translate(-0.728 -3.077)" fill="#121212"/>
    <path id="Path_822" data-name="Path 822" d="M18.352,8.231H5.636A.616.616,0,1,1,5.636,7H18.352a.616.616,0,1,1,0,1.231Z" transform="translate(0 -1.538)" fill="#121212"/>
    <path id="Path_823" data-name="Path 823" d="M16.722,6.692H11.636A.626.626,0,0,1,11,6.077V4.846A1.878,1.878,0,0,1,12.907,3h2.543a1.878,1.878,0,0,1,1.907,1.846V6.077A.626.626,0,0,1,16.722,6.692ZM12.272,5.462h3.815V4.846a.626.626,0,0,0-.636-.615H12.907a.626.626,0,0,0-.636.615Z" transform="translate(-2.185 0)" fill="#121212"/>
    <path id="Path_824" data-name="Path 824" d="M13.636,19.538A.626.626,0,0,1,13,18.923V14.615a.636.636,0,0,1,1.272,0v4.308A.626.626,0,0,1,13.636,19.538Z" transform="translate(-2.913 -4.231)" fill="#121212"/>
    <path id="Path_825" data-name="Path 825" d="M17.636,19.538A.626.626,0,0,1,17,18.923V14.615a.636.636,0,0,1,1.272,0v4.308A.626.626,0,0,1,17.636,19.538Z" transform="translate(-4.37 -4.231)" fill="#121212"/>
  </g>
</svg>
