<?xml version="1.0" encoding="utf-8"?>
<!-- Generator: Adobe Illustrator 17.0.0, SVG Export Plug-In . SVG Version: 6.00 Build 0)  -->
<!DOCTYPE svg PUBLIC "-//W3C//DTD SVG 1.1//EN" "http://www.w3.org/Graphics/SVG/1.1/DTD/svg11.dtd">
<svg version="1.1" id="Layer_1" xmlns="http://www.w3.org/2000/svg" xmlns:xlink="http://www.w3.org/1999/xlink" x="0px" y="0px"
	 width="13.988px" height="16px" viewBox="0 0 13.988 16" enable-background="new 0 0 13.988 16" xml:space="preserve">
<g id="Delete" transform="translate(-5 -3)">
	<path id="Path_821" fill="#FF0606" d="M14.538,19H9.451c-1.727,0.028-3.151-1.35-3.179-3.077V8.538
		c0-0.351,0.285-0.636,0.636-0.636s0.636,0.285,0.636,0.636v7.385c0.018,1.036,0.871,1.862,1.907,1.846h5.087
		c1.036,0.016,1.889-0.81,1.907-1.846V8.538c0-0.351,0.285-0.636,0.637-0.635c0.351,0,0.635,0.285,0.635,0.635v7.385
		C17.689,17.65,16.265,19.028,14.538,19z"/>
	<path id="Path_822" fill="#FF0606" d="M18.352,6.693H5.636c-0.34,0.014-0.627-0.251-0.64-0.591c-0.014-0.34,0.251-0.627,0.591-0.64
		c0.017-0.001,0.033-0.001,0.05,0h12.716c0.34-0.014,0.627,0.251,0.64,0.591c0.014,0.34-0.251,0.627-0.591,0.64
		C18.385,6.694,18.369,6.694,18.352,6.693z"/>
	<path id="Path_823" fill="#FF0606" d="M14.537,6.692H9.451c-0.345,0.006-0.63-0.27-0.636-0.615V4.846
		C8.833,3.81,9.686,2.984,10.722,3h2.543c1.036-0.016,1.889,0.81,1.907,1.846v1.231C15.166,6.422,14.882,6.697,14.537,6.692z
		 M10.087,5.462h3.815V4.846c-0.006-0.345-0.291-0.621-0.636-0.615h-2.544c-0.345-0.006-0.63,0.27-0.636,0.615L10.087,5.462z"/>
	<path id="Path_824" fill="#FF0606" d="M10.723,15.307c-0.345,0.006-0.63-0.27-0.636-0.615v-4.308c0-0.351,0.285-0.636,0.636-0.636
		c0.351,0,0.636,0.285,0.636,0.636v4.308C11.353,15.037,11.068,15.313,10.723,15.307z"/>
	<path id="Path_825" fill="#FF0606" d="M13.266,15.307c-0.345,0.006-0.63-0.27-0.636-0.615v-4.308c0-0.351,0.285-0.636,0.637-0.635
		c0.351,0,0.635,0.285,0.635,0.635v4.308C13.896,15.037,13.611,15.313,13.266,15.307z"/>
</g>
</svg>
