<svg xmlns="http://www.w3.org/2000/svg" width="14.96" height="15" viewBox="0 0 14.96 15">
  <g id="Option_Chain" data-name="Option Chain" transform="translate(-20.022 -20.05)">
    <path id="Path_211" data-name="Path 211" d="M23.264,54.5a3.275,3.275,0,0,0,2.3-.949l3.3-3.322a3.329,3.329,0,0,0,1-2.148,3.58,3.58,0,0,0-.35-1.7.743.743,0,0,0-1.2-.175h0a.792.792,0,0,0-.125.9,1.578,1.578,0,0,1,.175.9,1.677,1.677,0,0,1-.55,1.149l-3.3,3.272a1.8,1.8,0,0,1-2.423.125,1.725,1.725,0,0,1-.075-2.548l2.223-2.223a.779.779,0,0,0,.05-1.074.762.762,0,0,0-1.1-.025l-2.173,2.2A3.272,3.272,0,0,0,20.94,53.5,3.141,3.141,0,0,0,23.264,54.5Z" transform="translate(0 -19.452)" fill="#121212"/>
    <path id="Path_212" data-name="Path 212" d="M42.289,27.431a1.578,1.578,0,0,1-.175-.9,1.677,1.677,0,0,1,.55-1.149l3.272-3.3a1.8,1.8,0,0,1,2.423-.125,1.725,1.725,0,0,1,.075,2.548l-2.223,2.223a.779.779,0,0,0-.05,1.074.762.762,0,0,0,1.1.025l2.173-2.173a3.34,3.34,0,0,0,.025-4.7,3.227,3.227,0,0,0-4.546.05L41.59,24.284a3.33,3.33,0,0,0-1,2.148,3.58,3.58,0,0,0,.35,1.7.743.743,0,0,0,1.2.175h0A.721.721,0,0,0,42.289,27.431Z" transform="translate(-15.429 0)" fill="#121212"/>
  </g>
</svg>
