<svg xmlns="http://www.w3.org/2000/svg" width="12.968" height="12.967" viewBox="0 0 12.968 12.967">
  <g id="Pin" transform="translate(-0.183 -0.349)">
    <path id="Path_827" data-name="Path 827" d="M4.6,5.035a.8.8,0,0,0-.16,1.257l4.38,4.38a.8.8,0,0,0,1.257-.16,4.012,4.012,0,0,0,.432-2.955l3.483-2.216A.8.8,0,0,0,14.129,4.1L11.013.984a.8.8,0,0,0-1.241.137L7.557,4.6A4.012,4.012,0,0,0,4.6,5.035Z" transform="translate(-1.614 0)" fill="none" stroke="#121212" stroke-linecap="round" stroke-linejoin="round" stroke-width="0.8"/>
    <line id="Line_96" data-name="Line 96" x1="4.268" y2="4.268" transform="translate(0.749 8.482)" fill="none" stroke="#121212" stroke-linecap="round" stroke-linejoin="round" stroke-width="0.8"/>
  </g>
</svg>
